<svg version="1.1" xmlns="http://www.w3.org/2000/svg" xmlns:xlink="http://www.w3.org/1999/xlink">
    <symbol fill="currentColor" stroke="none" viewBox="0 0 47 13" id="logo">
        <path d="M5.40323 7.95454H7.49414L8.54528 9.30682L9.57937 10.5114L11.5282 12.9545H9.23278L7.89187 11.3068L7.20437 10.3295L5.40323 7.95454ZM11.7044 6.18182C11.7044 7.45076 11.4638 8.5303 10.9828 9.42045C10.5055 10.3106 9.85399 10.9905 9.02823 11.4602C8.20626 11.9261 7.28202 12.1591 6.2555 12.1591C5.22141 12.1591 4.29338 11.9242 3.47141 11.4545C2.64944 10.9848 1.99982 10.3049 1.52255 9.41477C1.04528 8.52462 0.806641 7.44697 0.806641 6.18182C0.806641 4.91288 1.04528 3.83333 1.52255 2.94318C1.99982 2.05303 2.64944 1.375 3.47141 0.90909C4.29338 0.439393 5.22141 0.204544 6.2555 0.204544C7.28202 0.204544 8.20626 0.439393 9.02823 0.90909C9.85399 1.375 10.5055 2.05303 10.9828 2.94318C11.4638 3.83333 11.7044 4.91288 11.7044 6.18182ZM9.21005 6.18182C9.21005 5.35985 9.08694 4.66667 8.84073 4.10227C8.59831 3.53788 8.2555 3.10985 7.81232 2.81818C7.36914 2.52651 6.8502 2.38068 6.2555 2.38068C5.66081 2.38068 5.14187 2.52651 4.69869 2.81818C4.2555 3.10985 3.91081 3.53788 3.6646 4.10227C3.42217 4.66667 3.30096 5.35985 3.30096 6.18182C3.30096 7.00379 3.42217 7.69697 3.6646 8.26136C3.91081 8.82576 4.2555 9.25379 4.69869 9.54545C5.14187 9.83712 5.66081 9.98295 6.2555 9.98295C6.8502 9.98295 7.36914 9.83712 7.81232 9.54545C8.2555 9.25379 8.59831 8.82576 8.84073 8.26136C9.08694 7.69697 9.21005 7.00379 9.21005 6.18182Z" />
        <path d="M13.5268 12V0.363635H18.1177C18.9965 0.363635 19.7465 0.520832 20.3677 0.835226C20.9927 1.14583 21.4681 1.58712 21.7939 2.15909C22.1234 2.72727 22.2882 3.39583 22.2882 4.16477C22.2882 4.9375 22.1215 5.60227 21.7882 6.15909C21.4548 6.71212 20.9719 7.13636 20.3393 7.43182C19.7105 7.72727 18.9492 7.875 18.0552 7.875H14.9814V5.89773H17.6575C18.1272 5.89773 18.5173 5.83333 18.8279 5.70454C19.1386 5.57576 19.3696 5.38257 19.5211 5.125C19.6764 4.86742 19.7541 4.54735 19.7541 4.16477C19.7541 3.77841 19.6764 3.45265 19.5211 3.1875C19.3696 2.92235 19.1367 2.72159 18.8223 2.58523C18.5117 2.44507 18.1196 2.375 17.6461 2.375H15.987V12H13.5268ZM19.8109 6.70454L22.7029 12H19.987L17.1575 6.70454H19.8109Z" />
        <path d="M31.7427 4.125C31.6632 3.84848 31.5514 3.60417 31.4075 3.39204C31.2636 3.17614 31.0874 2.99432 30.8791 2.84659C30.6745 2.69507 30.4397 2.57954 30.1745 2.5C29.9132 2.42045 29.6234 2.38068 29.3052 2.38068C28.7105 2.38068 28.1878 2.52841 27.737 2.82386C27.2901 3.11932 26.9416 3.54924 26.6916 4.11364C26.4416 4.67424 26.3166 5.35985 26.3166 6.17045C26.3166 6.98106 26.4397 7.67045 26.6859 8.23864C26.9321 8.80682 27.2806 9.24053 27.7314 9.53977C28.1821 9.83523 28.7143 9.98295 29.3279 9.98295C29.8848 9.98295 30.3601 9.88447 30.7541 9.6875C31.1518 9.48674 31.4548 9.20454 31.6632 8.84091C31.8753 8.47727 31.9814 8.04735 31.9814 7.55114L32.4814 7.625H29.4814V5.77273H34.3507V7.23864C34.3507 8.26136 34.1348 9.14015 33.7029 9.875C33.2711 10.6061 32.6764 11.1705 31.9189 11.5682C31.1613 11.9621 30.2939 12.1591 29.3166 12.1591C28.2257 12.1591 27.2673 11.9186 26.4416 11.4375C25.6158 10.9527 24.9719 10.2652 24.5098 9.375C24.0514 8.48106 23.8223 7.42045 23.8223 6.19318C23.8223 5.25 23.9586 4.40909 24.2314 3.67045C24.5079 2.92803 24.8942 2.29924 25.3904 1.78409C25.8867 1.26894 26.4643 0.876892 27.1234 0.607953C27.7825 0.339014 28.4965 0.204544 29.2654 0.204544C29.9245 0.204544 30.5382 0.301135 31.1064 0.494317C31.6745 0.683711 32.1783 0.95265 32.6177 1.30114C33.0609 1.64962 33.4226 2.06439 33.7029 2.54545C33.9832 3.02273 34.1632 3.54924 34.2427 4.125H31.7427Z" />
        <path d="M46.8919 6.18182C46.8919 7.45076 46.6513 8.5303 46.1703 9.42045C45.693 10.3106 45.0415 10.9905 44.2157 11.4602C43.3938 11.9261 42.4695 12.1591 41.443 12.1591C40.4089 12.1591 39.4809 11.9242 38.6589 11.4545C37.8369 10.9848 37.1873 10.3049 36.71 9.41477C36.2328 8.52462 35.9941 7.44697 35.9941 6.18182C35.9941 4.91288 36.2328 3.83333 36.71 2.94318C37.1873 2.05303 37.8369 1.375 38.6589 0.90909C39.4809 0.439393 40.4089 0.204544 41.443 0.204544C42.4695 0.204544 43.3938 0.439393 44.2157 0.90909C45.0415 1.375 45.693 2.05303 46.1703 2.94318C46.6513 3.83333 46.8919 4.91288 46.8919 6.18182ZM44.3975 6.18182C44.3975 5.35985 44.2744 4.66667 44.0282 4.10227C43.7858 3.53788 43.443 3.10985 42.9998 2.81818C42.5566 2.52651 42.0377 2.38068 41.443 2.38068C40.8483 2.38068 40.3294 2.52651 39.8862 2.81818C39.443 3.10985 39.0983 3.53788 38.8521 4.10227C38.6097 4.66667 38.4885 5.35985 38.4885 6.18182C38.4885 7.00379 38.6097 7.69697 38.8521 8.26136C39.0983 8.82576 39.443 9.25379 39.8862 9.54545C40.3294 9.83712 40.8483 9.98295 41.443 9.98295C42.0377 9.98295 42.5566 9.83712 42.9998 9.54545C43.443 9.25379 43.7858 8.82576 44.0282 8.26136C44.2744 7.69697 44.3975 7.00379 44.3975 6.18182Z" />
    </symbol>

    <symbol fill="none" stroke="currentColor" viewBox="0 0 20 14" id="burger">
        <path d="M1 7H19M1 1H19M1 13H19" stroke-width="2" stroke-linecap="round" stroke-linejoin="round"/>
    </symbol>

    <symbol fill="currentColor" stroke="none" viewBox="0 0 22 22" id="qr">
        <path fill-rule="evenodd" clip-rule="evenodd" d="M5.76928 1.09228C5.76928 1.027 5.79521 0.96439 5.84138 0.918227C5.88754 0.872064 5.95015 0.84613 6.01543 0.84613H8.60006C8.66534 0.84613 8.72795 0.872064 8.77411 0.918227C8.82028 0.96439 8.84621 1.027 8.84621 1.09228V1.21536C8.84621 1.28065 8.87214 1.34326 8.91831 1.38942C8.96447 1.43558 9.02708 1.46152 9.09236 1.46152H10.4462C10.5115 1.46152 10.5741 1.48745 10.6203 1.53361C10.6664 1.57978 10.6924 1.64239 10.6924 1.70767V1.83075C10.6924 1.89603 10.7183 1.95864 10.7645 2.00481C10.8106 2.05097 10.8732 2.0769 10.9385 2.0769H11.0616C11.1269 2.0769 11.1895 2.05097 11.2357 2.00481C11.2818 1.95864 11.3078 1.89603 11.3078 1.83075V1.70767C11.3078 1.64239 11.2818 1.57978 11.2357 1.53361C11.1895 1.48745 11.1269 1.46152 11.0616 1.46152H10.9385C10.8732 1.46152 10.8106 1.43558 10.7645 1.38942C10.7183 1.34326 10.6924 1.28065 10.6924 1.21536V1.09228C10.6924 1.027 10.7183 0.96439 10.7645 0.918227C10.8106 0.872064 10.8732 0.84613 10.9385 0.84613H11.677C11.7423 0.84613 11.8049 0.872064 11.851 0.918227C11.8972 0.96439 11.9231 1.027 11.9231 1.09228V1.21536C11.9231 1.28065 11.9491 1.34326 11.9952 1.38942C12.0414 1.43558 12.104 1.46152 12.1693 1.46152H12.9078C12.973 1.46152 13.0357 1.48745 13.0818 1.53361C13.128 1.57978 13.1539 1.64239 13.1539 1.70767V1.83075C13.1539 1.89603 13.1798 1.95864 13.226 2.00481C13.2722 2.05097 13.3348 2.0769 13.4001 2.0769H13.5231C13.5884 2.0769 13.651 2.10284 13.6972 2.149C13.7434 2.19516 13.7693 2.25777 13.7693 2.32306V3.06152C13.7693 3.1268 13.7434 3.18941 13.6972 3.23558C13.651 3.28174 13.5884 3.30767 13.5231 3.30767H13.4001C13.3348 3.30767 13.2722 3.28174 13.226 3.23558C13.1798 3.18941 13.1539 3.1268 13.1539 3.06152V2.93844C13.1539 2.87316 13.128 2.81055 13.0818 2.76439C13.0357 2.71822 12.973 2.69229 12.9078 2.69229H12.7847C12.7194 2.69229 12.6568 2.66635 12.6106 2.62019C12.5645 2.57403 12.5385 2.51142 12.5385 2.44613V2.32306C12.5385 2.25777 12.5126 2.19516 12.4664 2.149C12.4203 2.10284 12.3577 2.0769 12.2924 2.0769H12.1693C12.104 2.0769 12.0414 2.10284 11.9952 2.149C11.9491 2.19516 11.9231 2.25777 11.9231 2.32306V3.06152C11.9231 3.1268 11.9491 3.18941 11.9952 3.23558C12.0414 3.28174 12.104 3.30767 12.1693 3.30767H12.9078C12.973 3.30767 13.0357 3.33361 13.0818 3.37977C13.128 3.42593 13.1539 3.48854 13.1539 3.55383V4.29229C13.1539 4.35758 13.128 4.42019 13.0818 4.46635C13.0357 4.51251 12.973 4.53845 12.9078 4.53845H12.7847C12.7194 4.53845 12.6568 4.51251 12.6106 4.46635C12.5645 4.42019 12.5385 4.35758 12.5385 4.29229V4.16921C12.5385 4.10393 12.5126 4.04132 12.4664 3.99516C12.4203 3.94899 12.3577 3.92306 12.2924 3.92306H11.5539C11.4886 3.92306 11.426 3.89713 11.3799 3.85096C11.3337 3.8048 11.3078 3.74219 11.3078 3.67691V3.55383C11.3078 3.48854 11.2818 3.42593 11.2357 3.37977C11.1895 3.33361 11.1269 3.30767 11.0616 3.30767H10.9385C10.8732 3.30767 10.8106 3.28174 10.7645 3.23558C10.7183 3.18941 10.6924 3.1268 10.6924 3.06152V2.93844C10.6924 2.87316 10.6664 2.81055 10.6203 2.76439C10.5741 2.71822 10.5115 2.69229 10.4462 2.69229H10.3231C10.2579 2.69229 10.1952 2.66635 10.1491 2.62019C10.1029 2.57403 10.077 2.51142 10.077 2.44613V2.32306C10.077 2.25777 10.051 2.19516 10.0049 2.149C9.95872 2.10284 9.89611 2.0769 9.83083 2.0769H9.09236C9.02708 2.0769 8.96447 2.10284 8.91831 2.149C8.87214 2.19516 8.84621 2.25777 8.84621 2.32306V3.06152C8.84621 3.1268 8.82028 3.18941 8.77411 3.23558C8.72795 3.28174 8.66534 3.30767 8.60006 3.30767H8.47698C8.41169 3.30767 8.34908 3.28174 8.30292 3.23558C8.25676 3.18941 8.23082 3.1268 8.23082 3.06152V2.93844C8.23082 2.87316 8.20489 2.81055 8.15873 2.76439C8.11256 2.71822 8.04995 2.69229 7.98467 2.69229H7.86159C7.79631 2.69229 7.7337 2.71822 7.68753 2.76439C7.64137 2.81055 7.61544 2.87316 7.61544 2.93844V3.06152C7.61544 3.1268 7.5895 3.18941 7.54334 3.23558C7.49718 3.28174 7.43457 3.30767 7.36928 3.30767H7.24621C7.18092 3.30767 7.11831 3.28174 7.07215 3.23558C7.02599 3.18941 7.00005 3.1268 7.00005 3.06152V2.32306C7.00005 2.25777 7.02599 2.19516 7.07215 2.149C7.11831 2.10284 7.18092 2.0769 7.24621 2.0769H7.36928C7.43457 2.0769 7.49718 2.05097 7.54334 2.00481C7.5895 1.95864 7.61544 1.89603 7.61544 1.83075V1.70767C7.61544 1.64239 7.5895 1.57978 7.54334 1.53361C7.49718 1.48745 7.43457 1.46152 7.36928 1.46152H6.63082C6.56554 1.46152 6.50293 1.48745 6.45676 1.53361C6.4106 1.57978 6.38467 1.64239 6.38467 1.70767V1.83075C6.38467 1.89603 6.35873 1.95864 6.31257 2.00481C6.26641 2.05097 6.2038 2.0769 6.13851 2.0769H6.01543C5.95015 2.0769 5.88754 2.05097 5.84138 2.00481C5.79521 1.95864 5.76928 1.89603 5.76928 1.83075V1.09228ZM13.1539 1.09228C13.1539 1.027 13.1798 0.96439 13.226 0.918227C13.2722 0.872064 13.3348 0.84613 13.4001 0.84613H13.5231C13.5884 0.84613 13.651 0.872064 13.6972 0.918227C13.7434 0.96439 13.7693 1.027 13.7693 1.09228V1.21536C13.7693 1.28065 13.7434 1.34326 13.6972 1.38942C13.651 1.43558 13.5884 1.46152 13.5231 1.46152H13.4001C13.3348 1.46152 13.2722 1.43558 13.226 1.38942C13.1798 1.34326 13.1539 1.28065 13.1539 1.21536V1.09228ZM15.6155 1.09228C15.6155 1.027 15.6414 0.96439 15.6876 0.918227C15.7337 0.872064 15.7963 0.84613 15.8616 0.84613H15.9847C16.05 0.84613 16.1126 0.872064 16.1587 0.918227C16.2049 0.96439 16.2308 1.027 16.2308 1.09228V1.21536C16.2308 1.28065 16.2049 1.34326 16.1587 1.38942C16.1126 1.43558 16.05 1.46152 15.9847 1.46152H15.8616C15.7963 1.46152 15.7337 1.43558 15.6876 1.38942C15.6414 1.34326 15.6155 1.28065 15.6155 1.21536V1.09228ZM15.0001 1.70767C15.0001 1.64239 15.026 1.57978 15.0722 1.53361C15.1183 1.48745 15.1809 1.46152 15.2462 1.46152H15.3693C15.4346 1.46152 15.4972 1.48745 15.5434 1.53361C15.5895 1.57978 15.6155 1.64239 15.6155 1.70767V1.83075C15.6155 1.89603 15.6414 1.95864 15.6876 2.00481C15.7337 2.05097 15.7963 2.0769 15.8616 2.0769H15.9847C16.05 2.0769 16.1126 2.10284 16.1587 2.149C16.2049 2.19516 16.2308 2.25777 16.2308 2.32306V3.06152C16.2308 3.1268 16.2049 3.18941 16.1587 3.23558C16.1126 3.28174 16.05 3.30767 15.9847 3.30767H15.8616C15.7963 3.30767 15.7337 3.28174 15.6876 3.23558C15.6414 3.18941 15.6155 3.1268 15.6155 3.06152V2.93844C15.6155 2.87316 15.5895 2.81055 15.5434 2.76439C15.4972 2.71822 15.4346 2.69229 15.3693 2.69229H15.2462C15.1809 2.69229 15.1183 2.71822 15.0722 2.76439C15.026 2.81055 15.0001 2.87316 15.0001 2.93844V3.06152C15.0001 3.1268 14.9741 3.18941 14.928 3.23558C14.8818 3.28174 14.8192 3.30767 14.7539 3.30767H14.6308C14.5656 3.30767 14.5029 3.28174 14.4568 3.23558C14.4106 3.18941 14.3847 3.1268 14.3847 3.06152V2.32306C14.3847 2.25777 14.4106 2.19516 14.4568 2.149C14.5029 2.10284 14.5656 2.0769 14.6308 2.0769H14.7539C14.8192 2.0769 14.8818 2.05097 14.928 2.00481C14.9741 1.95864 15.0001 1.89603 15.0001 1.83075V1.70767ZM9.4616 2.93844C9.4616 2.87316 9.48753 2.81055 9.53369 2.76439C9.57986 2.71822 9.64247 2.69229 9.70775 2.69229H9.83083C9.89611 2.69229 9.95872 2.71822 10.0049 2.76439C10.051 2.81055 10.077 2.87316 10.077 2.93844V3.06152C10.077 3.1268 10.051 3.18941 10.0049 3.23558C9.95872 3.28174 9.89611 3.30767 9.83083 3.30767H9.70775C9.64247 3.30767 9.57986 3.28174 9.53369 3.23558C9.48753 3.18941 9.4616 3.1268 9.4616 3.06152V2.93844ZM5.76928 3.55383C5.76928 3.48854 5.79521 3.42593 5.84138 3.37977C5.88754 3.33361 5.95015 3.30767 6.01543 3.30767H6.7539C6.81918 3.30767 6.88179 3.33361 6.92795 3.37977C6.97412 3.42593 7.00005 3.48854 7.00005 3.55383V3.67691C7.00005 3.74219 6.97412 3.8048 6.92795 3.85096C6.88179 3.89713 6.81918 3.92306 6.7539 3.92306H6.63082C6.56554 3.92306 6.50293 3.94899 6.45676 3.99516C6.4106 4.04132 6.38467 4.10393 6.38467 4.16921V4.90768C6.38467 4.97296 6.4106 5.03557 6.45676 5.08174C6.50293 5.1279 6.56554 5.15383 6.63082 5.15383H6.7539C6.81918 5.15383 6.88179 5.17977 6.92795 5.22593C6.97412 5.27209 7.00005 5.3347 7.00005 5.39999V5.52306C7.00005 5.58835 6.97412 5.65096 6.92795 5.69712C6.88179 5.74328 6.81918 5.76922 6.7539 5.76922H6.63082C6.56554 5.76922 6.50293 5.79515 6.45676 5.84132C6.4106 5.88748 6.38467 5.95009 6.38467 6.01537V6.75384C6.38467 6.81912 6.35873 6.88173 6.31257 6.92789C6.26641 6.97406 6.2038 6.99999 6.13851 6.99999H6.01543C5.95015 6.99999 5.88754 6.97406 5.84138 6.92789C5.79521 6.88173 5.76928 6.81912 5.76928 6.75384V3.55383ZM7.61544 3.55383C7.61544 3.48854 7.64137 3.42593 7.68753 3.37977C7.7337 3.33361 7.79631 3.30767 7.86159 3.30767H7.98467C8.04995 3.30767 8.11256 3.33361 8.15873 3.37977C8.20489 3.42593 8.23082 3.48854 8.23082 3.55383V4.29229C8.23082 4.35758 8.20489 4.42019 8.15873 4.46635C8.11256 4.51251 8.04995 4.53845 7.98467 4.53845H7.86159C7.79631 4.53845 7.7337 4.51251 7.68753 4.46635C7.64137 4.42019 7.61544 4.35758 7.61544 4.29229V3.55383ZM8.84621 3.55383C8.84621 3.48854 8.87214 3.42593 8.91831 3.37977C8.96447 3.33361 9.02708 3.30767 9.09236 3.30767H9.21544C9.28073 3.30767 9.34334 3.33361 9.3895 3.37977C9.43566 3.42593 9.4616 3.48854 9.4616 3.55383V3.67691C9.4616 3.74219 9.43566 3.8048 9.3895 3.85096C9.34334 3.89713 9.28073 3.92306 9.21544 3.92306H9.09236C9.02708 3.92306 8.96447 3.89713 8.91831 3.85096C8.87214 3.8048 8.84621 3.74219 8.84621 3.67691V3.55383ZM10.077 3.55383C10.077 3.48854 10.1029 3.42593 10.1491 3.37977C10.1952 3.33361 10.2579 3.30767 10.3231 3.30767H10.4462C10.5115 3.30767 10.5741 3.33361 10.6203 3.37977C10.6664 3.42593 10.6924 3.48854 10.6924 3.55383V3.67691C10.6924 3.74219 10.7183 3.8048 10.7645 3.85096C10.8106 3.89713 10.8732 3.92306 10.9385 3.92306H11.0616C11.1269 3.92306 11.1895 3.94899 11.2357 3.99516C11.2818 4.04132 11.3078 4.10393 11.3078 4.16921V4.90768C11.3078 4.97296 11.2818 5.03557 11.2357 5.08174C11.1895 5.1279 11.1269 5.15383 11.0616 5.15383H10.9385C10.8732 5.15383 10.8106 5.1279 10.7645 5.08174C10.7183 5.03557 10.6924 4.97296 10.6924 4.90768V4.7846C10.6924 4.71932 10.6664 4.65671 10.6203 4.61054C10.5741 4.56438 10.5115 4.53845 10.4462 4.53845H10.3231C10.2579 4.53845 10.1952 4.51251 10.1491 4.46635C10.1029 4.42019 10.077 4.35758 10.077 4.29229V3.55383ZM13.7693 3.55383C13.7693 3.48854 13.7952 3.42593 13.8414 3.37977C13.8876 3.33361 13.9502 3.30767 14.0155 3.30767H14.1385C14.2038 3.30767 14.2664 3.33361 14.3126 3.37977C14.3587 3.42593 14.3847 3.48854 14.3847 3.55383V3.67691C14.3847 3.74219 14.3587 3.8048 14.3126 3.85096C14.2664 3.89713 14.2038 3.92306 14.1385 3.92306H14.0155C13.9502 3.92306 13.8876 3.89713 13.8414 3.85096C13.7952 3.8048 13.7693 3.74219 13.7693 3.67691V3.55383ZM15.0001 3.55383C15.0001 3.48854 15.026 3.42593 15.0722 3.37977C15.1183 3.33361 15.1809 3.30767 15.2462 3.30767H15.3693C15.4346 3.30767 15.4972 3.33361 15.5434 3.37977C15.5895 3.42593 15.6155 3.48854 15.6155 3.55383V4.29229C15.6155 4.35758 15.5895 4.42019 15.5434 4.46635C15.4972 4.51251 15.4346 4.53845 15.3693 4.53845H15.2462C15.1809 4.53845 15.1183 4.51251 15.0722 4.46635C15.026 4.42019 15.0001 4.35758 15.0001 4.29229V3.55383ZM7.00005 4.7846C7.00005 4.71932 7.02599 4.65671 7.07215 4.61054C7.11831 4.56438 7.18092 4.53845 7.24621 4.53845H7.36928C7.43457 4.53845 7.49718 4.56438 7.54334 4.61054C7.5895 4.65671 7.61544 4.71932 7.61544 4.7846V4.90768C7.61544 4.97296 7.5895 5.03557 7.54334 5.08174C7.49718 5.1279 7.43457 5.15383 7.36928 5.15383H7.24621C7.18092 5.15383 7.11831 5.1279 7.07215 5.08174C7.02599 5.03557 7.00005 4.97296 7.00005 4.90768V4.7846ZM8.23082 4.7846C8.23082 4.71932 8.25676 4.65671 8.30292 4.61054C8.34908 4.56438 8.41169 4.53845 8.47698 4.53845H8.60006C8.66534 4.53845 8.72795 4.56438 8.77411 4.61054C8.82028 4.65671 8.84621 4.71932 8.84621 4.7846V4.90768C8.84621 4.97296 8.82028 5.03557 8.77411 5.08174C8.72795 5.1279 8.66534 5.15383 8.60006 5.15383H8.47698C8.41169 5.15383 8.34908 5.1279 8.30292 5.08174C8.25676 5.03557 8.23082 4.97296 8.23082 4.90768V4.7846ZM9.4616 4.7846C9.4616 4.71932 9.48753 4.65671 9.53369 4.61054C9.57986 4.56438 9.64247 4.53845 9.70775 4.53845H9.83083C9.89611 4.53845 9.95872 4.56438 10.0049 4.61054C10.051 4.65671 10.077 4.71932 10.077 4.7846V4.90768C10.077 4.97296 10.1029 5.03557 10.1491 5.08174C10.1952 5.1279 10.2579 5.15383 10.3231 5.15383H10.4462C10.5115 5.15383 10.5741 5.17977 10.6203 5.22593C10.6664 5.27209 10.6924 5.3347 10.6924 5.39999V5.52306C10.6924 5.58835 10.7183 5.65096 10.7645 5.69712C10.8106 5.74328 10.8732 5.76922 10.9385 5.76922H11.0616C11.1269 5.76922 11.1895 5.74328 11.2357 5.69712C11.2818 5.65096 11.3078 5.58835 11.3078 5.52306V5.39999C11.3078 5.3347 11.3337 5.27209 11.3799 5.22593C11.426 5.17977 11.4886 5.15383 11.5539 5.15383H11.677C11.7423 5.15383 11.8049 5.17977 11.851 5.22593C11.8972 5.27209 11.9231 5.3347 11.9231 5.39999V6.13845C11.9231 6.20373 11.8972 6.26634 11.851 6.31251C11.8049 6.35867 11.7423 6.3846 11.677 6.3846H9.09236C9.02708 6.3846 8.96447 6.35867 8.91831 6.31251C8.87214 6.26634 8.84621 6.20373 8.84621 6.13845V5.39999C8.84621 5.3347 8.87214 5.27209 8.91831 5.22593C8.96447 5.17977 9.02708 5.15383 9.09236 5.15383H9.21544C9.28073 5.15383 9.34334 5.1279 9.3895 5.08174C9.43566 5.03557 9.4616 4.97296 9.4616 4.90768V4.7846ZM11.9231 4.7846C11.9231 4.71932 11.9491 4.65671 11.9952 4.61054C12.0414 4.56438 12.104 4.53845 12.1693 4.53845H12.2924C12.3577 4.53845 12.4203 4.56438 12.4664 4.61054C12.5126 4.65671 12.5385 4.71932 12.5385 4.7846V4.90768C12.5385 4.97296 12.5126 5.03557 12.4664 5.08174C12.4203 5.1279 12.3577 5.15383 12.2924 5.15383H12.1693C12.104 5.15383 12.0414 5.1279 11.9952 5.08174C11.9491 5.03557 11.9231 4.97296 11.9231 4.90768V4.7846ZM13.1539 4.7846C13.1539 4.71932 13.1798 4.65671 13.226 4.61054C13.2722 4.56438 13.3348 4.53845 13.4001 4.53845H13.5231C13.5884 4.53845 13.651 4.56438 13.6972 4.61054C13.7434 4.65671 13.7693 4.71932 13.7693 4.7846V4.90768C13.7693 4.97296 13.7434 5.03557 13.6972 5.08174C13.651 5.1279 13.5884 5.15383 13.5231 5.15383H13.4001C13.3348 5.15383 13.2722 5.1279 13.226 5.08174C13.1798 5.03557 13.1539 4.97296 13.1539 4.90768V4.7846ZM14.3847 4.7846C14.3847 4.71932 14.4106 4.65671 14.4568 4.61054C14.5029 4.56438 14.5656 4.53845 14.6308 4.53845H14.7539C14.8192 4.53845 14.8818 4.56438 14.928 4.61054C14.9741 4.65671 15.0001 4.71932 15.0001 4.7846V4.90768C15.0001 4.97296 14.9741 5.03557 14.928 5.08174C14.8818 5.1279 14.8192 5.15383 14.7539 5.15383H14.6308C14.5656 5.15383 14.5029 5.1279 14.4568 5.08174C14.4106 5.03557 14.3847 4.97296 14.3847 4.90768V4.7846ZM15.6155 4.7846C15.6155 4.71932 15.6414 4.65671 15.6876 4.61054C15.7337 4.56438 15.7963 4.53845 15.8616 4.53845H15.9847C16.05 4.53845 16.1126 4.56438 16.1587 4.61054C16.2049 4.65671 16.2308 4.71932 16.2308 4.7846V4.90768C16.2308 4.97296 16.2049 5.03557 16.1587 5.08174C16.1126 5.1279 16.05 5.15383 15.9847 5.15383H15.8616C15.7963 5.15383 15.7337 5.1279 15.6876 5.08174C15.6414 5.03557 15.6155 4.97296 15.6155 4.90768V4.7846ZM13.7693 5.39999C13.7693 5.3347 13.7952 5.27209 13.8414 5.22593C13.8876 5.17977 13.9502 5.15383 14.0155 5.15383H14.1385C14.2038 5.15383 14.2664 5.17977 14.3126 5.22593C14.3587 5.27209 14.3847 5.3347 14.3847 5.39999V5.52306C14.3847 5.58835 14.3587 5.65096 14.3126 5.69712C14.2664 5.74328 14.2038 5.76922 14.1385 5.76922H14.0155C13.9502 5.76922 13.8876 5.74328 13.8414 5.69712C13.7952 5.65096 13.7693 5.58835 13.7693 5.52306V5.39999ZM15.0001 5.39999C15.0001 5.3347 15.026 5.27209 15.0722 5.22593C15.1183 5.17977 15.1809 5.15383 15.2462 5.15383H15.3693C15.4346 5.15383 15.4972 5.17977 15.5434 5.22593C15.5895 5.27209 15.6155 5.3347 15.6155 5.39999V5.52306C15.6155 5.58835 15.5895 5.65096 15.5434 5.69712C15.4972 5.74328 15.4346 5.76922 15.3693 5.76922H15.2462C15.1809 5.76922 15.1183 5.74328 15.0722 5.69712C15.026 5.65096 15.0001 5.58835 15.0001 5.52306V5.39999ZM0.846191 6.01537C0.846191 5.95009 0.872125 5.88748 0.918288 5.84132C0.964451 5.79515 1.02706 5.76922 1.09235 5.76922H2.4462C2.51148 5.76922 2.57409 5.79515 2.62025 5.84132C2.66642 5.88748 2.69235 5.95009 2.69235 6.01537V6.13845C2.69235 6.20373 2.71828 6.26634 2.76445 6.31251C2.81061 6.35867 2.87322 6.3846 2.9385 6.3846H3.67697C3.74225 6.3846 3.80486 6.35867 3.85102 6.31251C3.89719 6.26634 3.92312 6.20373 3.92312 6.13845V6.01537C3.92312 5.95009 3.94906 5.88748 3.99522 5.84132C4.04138 5.79515 4.10399 5.76922 4.16928 5.76922H4.90774C4.97302 5.76922 5.03563 5.79515 5.0818 5.84132C5.12796 5.88748 5.15389 5.95009 5.15389 6.01537V6.13845C5.15389 6.20373 5.12796 6.26634 5.0818 6.31251C5.03563 6.35867 4.97302 6.3846 4.90774 6.3846H4.78466C4.71938 6.3846 4.65677 6.41054 4.6106 6.4567C4.56444 6.50286 4.53851 6.56547 4.53851 6.63076V6.75384C4.53851 6.81912 4.56444 6.88173 4.6106 6.92789C4.65677 6.97406 4.71938 6.99999 4.78466 6.99999H4.90774C4.97302 6.99999 5.03563 7.02592 5.0818 7.07209C5.12796 7.11825 5.15389 7.18086 5.15389 7.24614V7.36922C5.15389 7.43451 5.12796 7.49712 5.0818 7.54328C5.03563 7.58944 4.97302 7.61538 4.90774 7.61538H4.78466C4.71938 7.61538 4.65677 7.64131 4.6106 7.68747C4.56444 7.73364 4.53851 7.79625 4.53851 7.86153V7.98461C4.53851 8.04989 4.56444 8.1125 4.6106 8.15867C4.65677 8.20483 4.71938 8.23076 4.78466 8.23076H4.90774C4.97302 8.23076 5.03563 8.2567 5.0818 8.30286C5.12796 8.34902 5.15389 8.41163 5.15389 8.47692V8.59999C5.15389 8.66528 5.12796 8.72789 5.0818 8.77405C5.03563 8.82021 4.97302 8.84615 4.90774 8.84615H2.9385C2.87322 8.84615 2.81061 8.82021 2.76445 8.77405C2.71828 8.72789 2.69235 8.66528 2.69235 8.59999V8.47692C2.69235 8.41163 2.71828 8.34902 2.76445 8.30286C2.81061 8.2567 2.87322 8.23076 2.9385 8.23076H3.67697C3.74225 8.23076 3.80486 8.20483 3.85102 8.15867C3.89719 8.1125 3.92312 8.04989 3.92312 7.98461V7.24614C3.92312 7.18086 3.89719 7.11825 3.85102 7.07209C3.80486 7.02592 3.74225 6.99999 3.67697 6.99999H2.9385C2.87322 6.99999 2.81061 7.02592 2.76445 7.07209C2.71828 7.11825 2.69235 7.18086 2.69235 7.24614V7.98461C2.69235 8.04989 2.66642 8.1125 2.62025 8.15867C2.57409 8.20483 2.51148 8.23076 2.4462 8.23076H2.32312C2.25783 8.23076 2.19522 8.20483 2.14906 8.15867C2.1029 8.1125 2.07696 8.04989 2.07696 7.98461V7.24614C2.07696 7.18086 2.05103 7.11825 2.00487 7.07209C1.9587 7.02592 1.89609 6.99999 1.83081 6.99999H1.70773C1.64245 6.99999 1.57984 6.97406 1.53367 6.92789C1.48751 6.88173 1.46158 6.81912 1.46158 6.75384V6.63076C1.46158 6.56547 1.43564 6.50286 1.38948 6.4567C1.34332 6.41054 1.28071 6.3846 1.21542 6.3846H1.09235C1.02706 6.3846 0.964451 6.35867 0.918288 6.31251C0.872125 6.26634 0.846191 6.20373 0.846191 6.13845V6.01537ZM7.00005 6.01537C7.00005 5.95009 7.02599 5.88748 7.07215 5.84132C7.11831 5.79515 7.18092 5.76922 7.24621 5.76922H7.36928C7.43457 5.76922 7.49718 5.79515 7.54334 5.84132C7.5895 5.88748 7.61544 5.95009 7.61544 6.01537V6.13845C7.61544 6.20373 7.64137 6.26634 7.68753 6.31251C7.7337 6.35867 7.79631 6.3846 7.86159 6.3846H7.98467C8.04995 6.3846 8.11256 6.41054 8.15873 6.4567C8.20489 6.50286 8.23082 6.56547 8.23082 6.63076V6.75384C8.23082 6.81912 8.20489 6.88173 8.15873 6.92789C8.11256 6.97406 8.04995 6.99999 7.98467 6.99999H7.24621C7.18092 6.99999 7.11831 6.97406 7.07215 6.92789C7.02599 6.88173 7.00005 6.81912 7.00005 6.75384V6.01537ZM14.3847 6.01537C14.3847 5.95009 14.4106 5.88748 14.4568 5.84132C14.5029 5.79515 14.5656 5.76922 14.6308 5.76922H14.7539C14.8192 5.76922 14.8818 5.79515 14.928 5.84132C14.9741 5.88748 15.0001 5.95009 15.0001 6.01537V6.13845C15.0001 6.20373 15.026 6.26634 15.0722 6.31251C15.1183 6.35867 15.1809 6.3846 15.2462 6.3846H15.3693C15.4346 6.3846 15.4972 6.41054 15.5434 6.4567C15.5895 6.50286 15.6155 6.56547 15.6155 6.63076V6.75384C15.6155 6.81912 15.5895 6.88173 15.5434 6.92789C15.4972 6.97406 15.4346 6.99999 15.3693 6.99999H15.2462C15.1809 6.99999 15.1183 7.02592 15.0722 7.07209C15.026 7.11825 15.0001 7.18086 15.0001 7.24614V7.98461C15.0001 8.04989 15.026 8.1125 15.0722 8.15867C15.1183 8.20483 15.1809 8.23076 15.2462 8.23076H15.3693C15.4346 8.23076 15.4972 8.2567 15.5434 8.30286C15.5895 8.34902 15.6155 8.41163 15.6155 8.47692V8.59999C15.6155 8.66528 15.5895 8.72789 15.5434 8.77405C15.4972 8.82021 15.4346 8.84615 15.3693 8.84615H14.6308C14.5656 8.84615 14.5029 8.82021 14.4568 8.77405C14.4106 8.72789 14.3847 8.66528 14.3847 8.59999V7.86153C14.3847 7.79625 14.3587 7.73364 14.3126 7.68747C14.2664 7.64131 14.2038 7.61538 14.1385 7.61538H13.4001C13.3348 7.61538 13.2722 7.58944 13.226 7.54328C13.1798 7.49712 13.1539 7.43451 13.1539 7.36922V7.24614C13.1539 7.18086 13.1798 7.11825 13.226 7.07209C13.2722 7.02592 13.3348 6.99999 13.4001 6.99999H13.5231C13.5884 6.99999 13.651 6.97406 13.6972 6.92789C13.7434 6.88173 13.7693 6.81912 13.7693 6.75384V6.63076C13.7693 6.56547 13.7952 6.50286 13.8414 6.4567C13.8876 6.41054 13.9502 6.3846 14.0155 6.3846H14.1385C14.2038 6.3846 14.2664 6.35867 14.3126 6.31251C14.3587 6.26634 14.3847 6.20373 14.3847 6.13845V6.01537ZM16.2308 6.01537C16.2308 5.95009 16.2568 5.88748 16.3029 5.84132C16.3491 5.79515 16.4117 5.76922 16.477 5.76922H18.4462C18.5115 5.76922 18.5741 5.79515 18.6203 5.84132C18.6665 5.88748 18.6924 5.95009 18.6924 6.01537V6.13845C18.6924 6.20373 18.6665 6.26634 18.6203 6.31251C18.5741 6.35867 18.5115 6.3846 18.4462 6.3846H17.7078C17.6425 6.3846 17.5799 6.41054 17.5337 6.4567C17.4875 6.50286 17.4616 6.56547 17.4616 6.63076V7.36922C17.4616 7.43451 17.4357 7.49712 17.3895 7.54328C17.3434 7.58944 17.2807 7.61538 17.2155 7.61538H15.8616C15.7963 7.61538 15.7337 7.58944 15.6876 7.54328C15.6414 7.49712 15.6155 7.43451 15.6155 7.36922V7.24614C15.6155 7.18086 15.6414 7.11825 15.6876 7.07209C15.7337 7.02592 15.7963 6.99999 15.8616 6.99999H16.6001C16.6654 6.99999 16.728 6.97406 16.7741 6.92789C16.8203 6.88173 16.8462 6.81912 16.8462 6.75384V6.63076C16.8462 6.56547 16.8203 6.50286 16.7741 6.4567C16.728 6.41054 16.6654 6.3846 16.6001 6.3846H16.477C16.4117 6.3846 16.3491 6.35867 16.3029 6.31251C16.2568 6.26634 16.2308 6.20373 16.2308 6.13845V6.01537ZM19.9232 6.01537C19.9232 5.95009 19.9491 5.88748 19.9953 5.84132C20.0414 5.79515 20.104 5.76922 20.1693 5.76922H20.9078C20.9731 5.76922 21.0357 5.79515 21.0818 5.84132C21.128 5.88748 21.1539 5.95009 21.1539 6.01537V7.98461C21.1539 8.04989 21.128 8.1125 21.0818 8.15867C21.0357 8.20483 20.9731 8.23076 20.9078 8.23076H20.7847C20.7194 8.23076 20.6568 8.2567 20.6106 8.30286C20.5645 8.34902 20.5385 8.41163 20.5385 8.47692V8.59999C20.5385 8.66528 20.5126 8.72789 20.4664 8.77405C20.4203 8.82021 20.3577 8.84615 20.2924 8.84615H19.5539C19.4886 8.84615 19.426 8.82021 19.3799 8.77405C19.3337 8.72789 19.3078 8.66528 19.3078 8.59999V8.47692C19.3078 8.41163 19.2818 8.34902 19.2357 8.30286C19.1895 8.2567 19.1269 8.23076 19.0616 8.23076H18.3232C18.2579 8.23076 18.1953 8.20483 18.1491 8.15867C18.1029 8.1125 18.077 8.04989 18.077 7.98461V7.24614C18.077 7.18086 18.1029 7.11825 18.1491 7.07209C18.1953 7.02592 18.2579 6.99999 18.3232 6.99999H20.2924C20.3577 6.99999 20.4203 6.97406 20.4664 6.92789C20.5126 6.88173 20.5385 6.81912 20.5385 6.75384V6.63076C20.5385 6.56547 20.5126 6.50286 20.4664 6.4567C20.4203 6.41054 20.3577 6.3846 20.2924 6.3846H20.1693C20.104 6.3846 20.0414 6.35867 19.9953 6.31251C19.9491 6.26634 19.9232 6.20373 19.9232 6.13845V6.01537ZM11.9231 6.63076C11.9231 6.56547 11.9491 6.50286 11.9952 6.4567C12.0414 6.41054 12.104 6.3846 12.1693 6.3846H12.9078C12.973 6.3846 13.0357 6.41054 13.0818 6.4567C13.128 6.50286 13.1539 6.56547 13.1539 6.63076V6.75384C13.1539 6.81912 13.128 6.88173 13.0818 6.92789C13.0357 6.97406 12.973 6.99999 12.9078 6.99999H12.7847C12.7194 6.99999 12.6568 7.02592 12.6106 7.07209C12.5645 7.11825 12.5385 7.18086 12.5385 7.24614V7.36922C12.5385 7.43451 12.5126 7.49712 12.4664 7.54328C12.4203 7.58944 12.3577 7.61538 12.2924 7.61538H12.1693C12.104 7.61538 12.0414 7.64131 11.9952 7.68747C11.9491 7.73364 11.9231 7.79625 11.9231 7.86153V7.98461C11.9231 8.04989 11.8972 8.1125 11.851 8.15867C11.8049 8.20483 11.7423 8.23076 11.677 8.23076H11.5539C11.4886 8.23076 11.426 8.20483 11.3799 8.15867C11.3337 8.1125 11.3078 8.04989 11.3078 7.98461V7.24614C11.3078 7.18086 11.3337 7.11825 11.3799 7.07209C11.426 7.02592 11.4886 6.99999 11.5539 6.99999H11.677C11.7423 6.99999 11.8049 6.97406 11.851 6.92789C11.8972 6.88173 11.9231 6.81912 11.9231 6.75384V6.63076ZM0.846191 7.24614C0.846191 7.18086 0.872125 7.11825 0.918288 7.07209C0.964451 7.02592 1.02706 6.99999 1.09235 6.99999H1.21542C1.28071 6.99999 1.34332 7.02592 1.38948 7.07209C1.43564 7.11825 1.46158 7.18086 1.46158 7.24614V7.36922C1.46158 7.43451 1.43564 7.49712 1.38948 7.54328C1.34332 7.58944 1.28071 7.61538 1.21542 7.61538H1.09235C1.02706 7.61538 0.964451 7.58944 0.918288 7.54328C0.872125 7.49712 0.846191 7.43451 0.846191 7.36922V7.24614ZM6.38467 7.24614C6.38467 7.18086 6.4106 7.11825 6.45676 7.07209C6.50293 7.02592 6.56554 6.99999 6.63082 6.99999H6.7539C6.81918 6.99999 6.88179 7.02592 6.92795 7.07209C6.97412 7.11825 7.00005 7.18086 7.00005 7.24614V7.36922C7.00005 7.43451 6.97412 7.49712 6.92795 7.54328C6.88179 7.58944 6.81918 7.61538 6.7539 7.61538H6.63082C6.56554 7.61538 6.50293 7.58944 6.45676 7.54328C6.4106 7.49712 6.38467 7.43451 6.38467 7.36922V7.24614ZM8.23082 7.24614C8.23082 7.18086 8.25676 7.11825 8.30292 7.07209C8.34908 7.02592 8.41169 6.99999 8.47698 6.99999H9.83083C9.89611 6.99999 9.95872 7.02592 10.0049 7.07209C10.051 7.11825 10.077 7.18086 10.077 7.24614V7.98461C10.077 8.04989 10.051 8.1125 10.0049 8.15867C9.95872 8.20483 9.89611 8.23076 9.83083 8.23076H9.70775C9.64247 8.23076 9.57986 8.2567 9.53369 8.30286C9.48753 8.34902 9.4616 8.41163 9.4616 8.47692V8.59999C9.4616 8.66528 9.43566 8.72789 9.3895 8.77405C9.34334 8.82021 9.28073 8.84615 9.21544 8.84615H9.09236C9.02708 8.84615 8.96447 8.82021 8.91831 8.77405C8.87214 8.72789 8.84621 8.66528 8.84621 8.59999V7.86153C8.84621 7.79625 8.82028 7.73364 8.77411 7.68747C8.72795 7.64131 8.66534 7.61538 8.60006 7.61538H8.47698C8.41169 7.61538 8.34908 7.58944 8.30292 7.54328C8.25676 7.49712 8.23082 7.43451 8.23082 7.36922V7.24614ZM5.15389 7.86153C5.15389 7.79625 5.17983 7.73364 5.22599 7.68747C5.27215 7.64131 5.33476 7.61538 5.40005 7.61538H6.13851C6.2038 7.61538 6.26641 7.64131 6.31257 7.68747C6.35873 7.73364 6.38467 7.79625 6.38467 7.86153V7.98461C6.38467 8.04989 6.35873 8.1125 6.31257 8.15867C6.26641 8.20483 6.2038 8.23076 6.13851 8.23076H5.40005C5.33476 8.23076 5.27215 8.20483 5.22599 8.15867C5.17983 8.1125 5.15389 8.04989 5.15389 7.98461V7.86153ZM7.00005 7.86153C7.00005 7.79625 7.02599 7.73364 7.07215 7.68747C7.11831 7.64131 7.18092 7.61538 7.24621 7.61538H7.36928C7.43457 7.61538 7.49718 7.64131 7.54334 7.68747C7.5895 7.73364 7.61544 7.79625 7.61544 7.86153V7.98461C7.61544 8.04989 7.64137 8.1125 7.68753 8.15867C7.7337 8.20483 7.79631 8.23076 7.86159 8.23076H7.98467C8.04995 8.23076 8.11256 8.2567 8.15873 8.30286C8.20489 8.34902 8.23082 8.41163 8.23082 8.47692V8.59999C8.23082 8.66528 8.20489 8.72789 8.15873 8.77405C8.11256 8.82021 8.04995 8.84615 7.98467 8.84615H6.63082C6.56554 8.84615 6.50293 8.82021 6.45676 8.77405C6.4106 8.72789 6.38467 8.66528 6.38467 8.59999V8.47692C6.38467 8.41163 6.4106 8.34902 6.45676 8.30286C6.50293 8.2567 6.56554 8.23076 6.63082 8.23076H6.7539C6.81918 8.23076 6.88179 8.20483 6.92795 8.15867C6.97412 8.1125 7.00005 8.04989 7.00005 7.98461V7.86153ZM0.846191 8.47692C0.846191 8.41163 0.872125 8.34902 0.918288 8.30286C0.964451 8.2567 1.02706 8.23076 1.09235 8.23076H1.83081C1.89609 8.23076 1.9587 8.2567 2.00487 8.30286C2.05103 8.34902 2.07696 8.41163 2.07696 8.47692V9.21538C2.07696 9.28066 2.1029 9.34327 2.14906 9.38944C2.19522 9.4356 2.25783 9.46153 2.32312 9.46153H2.4462C2.51148 9.46153 2.57409 9.48747 2.62025 9.53363C2.66642 9.57979 2.69235 9.6424 2.69235 9.70769V9.83077C2.69235 9.89605 2.66642 9.95866 2.62025 10.0048C2.57409 10.051 2.51148 10.0769 2.4462 10.0769H2.32312C2.25783 10.0769 2.19522 10.1029 2.14906 10.149C2.1029 10.1952 2.07696 10.2578 2.07696 10.3231V10.4462C2.07696 10.5114 2.05103 10.574 2.00487 10.6202C1.9587 10.6664 1.89609 10.6923 1.83081 10.6923H1.70773C1.64245 10.6923 1.57984 10.6664 1.53367 10.6202C1.48751 10.574 1.46158 10.5114 1.46158 10.4462V9.0923C1.46158 9.02702 1.43564 8.96441 1.38948 8.91825C1.34332 8.87208 1.28071 8.84615 1.21542 8.84615H1.09235C1.02706 8.84615 0.964451 8.82021 0.918288 8.77405C0.872125 8.72789 0.846191 8.66528 0.846191 8.59999V8.47692ZM10.077 8.47692C10.077 8.41163 10.1029 8.34902 10.1491 8.30286C10.1952 8.2567 10.2579 8.23076 10.3231 8.23076H10.4462C10.5115 8.23076 10.5741 8.2567 10.6203 8.30286C10.6664 8.34902 10.6924 8.41163 10.6924 8.47692V8.59999C10.6924 8.66528 10.6664 8.72789 10.6203 8.77405C10.5741 8.82021 10.5115 8.84615 10.4462 8.84615H10.3231C10.2579 8.84615 10.1952 8.82021 10.1491 8.77405C10.1029 8.72789 10.077 8.66528 10.077 8.59999V8.47692ZM11.9231 8.47692C11.9231 8.41163 11.9491 8.34902 11.9952 8.30286C12.0414 8.2567 12.104 8.23076 12.1693 8.23076H12.9078C12.973 8.23076 13.0357 8.2567 13.0818 8.30286C13.128 8.34902 13.1539 8.41163 13.1539 8.47692V8.59999C13.1539 8.66528 13.128 8.72789 13.0818 8.77405C13.0357 8.82021 12.973 8.84615 12.9078 8.84615H12.7847C12.7194 8.84615 12.6568 8.87208 12.6106 8.91825C12.5645 8.96441 12.5385 9.02702 12.5385 9.0923V9.83077C12.5385 9.89605 12.5126 9.95866 12.4664 10.0048C12.4203 10.051 12.3577 10.0769 12.2924 10.0769H12.1693C12.104 10.0769 12.0414 10.051 11.9952 10.0048C11.9491 9.95866 11.9231 9.89605 11.9231 9.83077V8.47692ZM5.15389 9.0923C5.15389 9.02702 5.17983 8.96441 5.22599 8.91825C5.27215 8.87208 5.33476 8.84615 5.40005 8.84615H6.13851C6.2038 8.84615 6.26641 8.87208 6.31257 8.91825C6.35873 8.96441 6.38467 9.02702 6.38467 9.0923V9.21538C6.38467 9.28066 6.35873 9.34327 6.31257 9.38944C6.26641 9.4356 6.2038 9.46153 6.13851 9.46153H5.40005C5.33476 9.46153 5.27215 9.4356 5.22599 9.38944C5.17983 9.34327 5.15389 9.28066 5.15389 9.21538V9.0923ZM8.23082 9.0923C8.23082 9.02702 8.25676 8.96441 8.30292 8.91825C8.34908 8.87208 8.41169 8.84615 8.47698 8.84615H8.60006C8.66534 8.84615 8.72795 8.87208 8.77411 8.91825C8.82028 8.96441 8.84621 9.02702 8.84621 9.0923V9.21538C8.84621 9.28066 8.87214 9.34327 8.91831 9.38944C8.96447 9.4356 9.02708 9.46153 9.09236 9.46153H9.21544C9.28073 9.46153 9.34334 9.4356 9.3895 9.38944C9.43566 9.34327 9.4616 9.28066 9.4616 9.21538V9.0923C9.4616 9.02702 9.48753 8.96441 9.53369 8.91825C9.57986 8.87208 9.64247 8.84615 9.70775 8.84615H9.83083C9.89611 8.84615 9.95872 8.87208 10.0049 8.91825C10.051 8.96441 10.077 9.02702 10.077 9.0923V9.83077C10.077 9.89605 10.051 9.95866 10.0049 10.0048C9.95872 10.051 9.89611 10.0769 9.83083 10.0769H9.70775C9.64247 10.0769 9.57986 10.1029 9.53369 10.149C9.48753 10.1952 9.4616 10.2578 9.4616 10.3231V10.4462C9.4616 10.5114 9.43566 10.574 9.3895 10.6202C9.34334 10.6664 9.28073 10.6923 9.21544 10.6923H8.47698C8.41169 10.6923 8.34908 10.6664 8.30292 10.6202C8.25676 10.574 8.23082 10.5114 8.23082 10.4462V9.0923ZM10.6924 9.0923C10.6924 9.02702 10.7183 8.96441 10.7645 8.91825C10.8106 8.87208 10.8732 8.84615 10.9385 8.84615H11.0616C11.1269 8.84615 11.1895 8.87208 11.2357 8.91825C11.2818 8.96441 11.3078 9.02702 11.3078 9.0923V9.21538C11.3078 9.28066 11.2818 9.34327 11.2357 9.38944C11.1895 9.4356 11.1269 9.46153 11.0616 9.46153H10.9385C10.8732 9.46153 10.8106 9.4356 10.7645 9.38944C10.7183 9.34327 10.6924 9.28066 10.6924 9.21538V9.0923ZM13.1539 9.0923C13.1539 9.02702 13.1798 8.96441 13.226 8.91825C13.2722 8.87208 13.3348 8.84615 13.4001 8.84615H13.5231C13.5884 8.84615 13.651 8.87208 13.6972 8.91825C13.7434 8.96441 13.7693 9.02702 13.7693 9.0923V9.21538C13.7693 9.28066 13.7952 9.34327 13.8414 9.38944C13.8876 9.4356 13.9502 9.46153 14.0155 9.46153H14.7539C14.8192 9.46153 14.8818 9.48747 14.928 9.53363C14.9741 9.57979 15.0001 9.6424 15.0001 9.70769V9.83077C15.0001 9.89605 14.9741 9.95866 14.928 10.0048C14.8818 10.051 14.8192 10.0769 14.7539 10.0769H14.6308C14.5656 10.0769 14.5029 10.1029 14.4568 10.149C14.4106 10.1952 14.3847 10.2578 14.3847 10.3231V11.0615C14.3847 11.1268 14.3587 11.1894 14.3126 11.2356C14.2664 11.2818 14.2038 11.3077 14.1385 11.3077H13.4001C13.3348 11.3077 13.2722 11.3336 13.226 11.3798C13.1798 11.426 13.1539 11.4886 13.1539 11.5538V12.2923C13.1539 12.3576 13.128 12.4202 13.0818 12.4664C13.0357 12.5125 12.973 12.5385 12.9078 12.5385H12.7847C12.7194 12.5385 12.6568 12.5644 12.6106 12.6106C12.5645 12.6567 12.5385 12.7193 12.5385 12.7846V12.9077C12.5385 12.973 12.5645 13.0356 12.6106 13.0818C12.6568 13.1279 12.7194 13.1539 12.7847 13.1539H13.5231C13.5884 13.1539 13.651 13.1798 13.6972 13.2259C13.7434 13.2721 13.7693 13.3347 13.7693 13.4V13.5231C13.7693 13.5884 13.7434 13.651 13.6972 13.6971C13.651 13.7433 13.5884 13.7692 13.5231 13.7692H11.5539C11.4886 13.7692 11.426 13.7433 11.3799 13.6971C11.3337 13.651 11.3078 13.5884 11.3078 13.5231V12.7846C11.3078 12.7193 11.2818 12.6567 11.2357 12.6106C11.1895 12.5644 11.1269 12.5385 11.0616 12.5385H10.9385C10.8732 12.5385 10.8106 12.5125 10.7645 12.4664C10.7183 12.4202 10.6924 12.3576 10.6924 12.2923V12.1692C10.6924 12.1039 10.7183 12.0413 10.7645 11.9952C10.8106 11.949 10.8732 11.9231 10.9385 11.9231H11.677C11.7423 11.9231 11.8049 11.8971 11.851 11.851C11.8972 11.8048 11.9231 11.7422 11.9231 11.6769V11.5538C11.9231 11.4886 11.9491 11.426 11.9952 11.3798C12.0414 11.3336 12.104 11.3077 12.1693 11.3077H12.2924C12.3577 11.3077 12.4203 11.2818 12.4664 11.2356C12.5126 11.1894 12.5385 11.1268 12.5385 11.0615V10.9385C12.5385 10.8732 12.5645 10.8106 12.6106 10.7644C12.6568 10.7182 12.7194 10.6923 12.7847 10.6923H13.5231C13.5884 10.6923 13.651 10.6664 13.6972 10.6202C13.7434 10.574 13.7693 10.5114 13.7693 10.4462V10.3231C13.7693 10.2578 13.7434 10.1952 13.6972 10.149C13.651 10.1029 13.5884 10.0769 13.5231 10.0769H13.4001C13.3348 10.0769 13.2722 10.051 13.226 10.0048C13.1798 9.95866 13.1539 9.89605 13.1539 9.83077V9.0923ZM15.6155 9.0923C15.6155 9.02702 15.6414 8.96441 15.6876 8.91825C15.7337 8.87208 15.7963 8.84615 15.8616 8.84615H16.6001C16.6654 8.84615 16.728 8.87208 16.7741 8.91825C16.8203 8.96441 16.8462 9.02702 16.8462 9.0923V9.21538C16.8462 9.28066 16.8722 9.34327 16.9183 9.38944C16.9645 9.4356 17.0271 9.46153 17.0924 9.46153H17.8308C17.8961 9.46153 17.9587 9.4356 18.0049 9.38944C18.0511 9.34327 18.077 9.28066 18.077 9.21538V9.0923C18.077 9.02702 18.1029 8.96441 18.1491 8.91825C18.1953 8.87208 18.2579 8.84615 18.3232 8.84615H18.4462C18.5115 8.84615 18.5741 8.87208 18.6203 8.91825C18.6665 8.96441 18.6924 9.02702 18.6924 9.0923V9.83077C18.6924 9.89605 18.6665 9.95866 18.6203 10.0048C18.5741 10.051 18.5115 10.0769 18.4462 10.0769H17.0924C17.0271 10.0769 16.9645 10.1029 16.9183 10.149C16.8722 10.1952 16.8462 10.2578 16.8462 10.3231V11.0615C16.8462 11.1268 16.8203 11.1894 16.7741 11.2356C16.728 11.2818 16.6654 11.3077 16.6001 11.3077H16.477C16.4117 11.3077 16.3491 11.2818 16.3029 11.2356C16.2568 11.1894 16.2308 11.1268 16.2308 11.0615V10.9385C16.2308 10.8732 16.2049 10.8106 16.1587 10.7644C16.1126 10.7182 16.05 10.6923 15.9847 10.6923H15.8616C15.7963 10.6923 15.7337 10.6664 15.6876 10.6202C15.6414 10.574 15.6155 10.5114 15.6155 10.4462V9.0923ZM4.53851 9.70769C4.53851 9.6424 4.56444 9.57979 4.6106 9.53363C4.65677 9.48747 4.71938 9.46153 4.78466 9.46153H4.90774C4.97302 9.46153 5.03563 9.48747 5.0818 9.53363C5.12796 9.57979 5.15389 9.6424 5.15389 9.70769V9.83077C5.15389 9.89605 5.12796 9.95866 5.0818 10.0048C5.03563 10.051 4.97302 10.0769 4.90774 10.0769H4.78466C4.71938 10.0769 4.65677 10.051 4.6106 10.0048C4.56444 9.95866 4.53851 9.89605 4.53851 9.83077V9.70769ZM19.3078 9.70769C19.3078 9.6424 19.3337 9.57979 19.3799 9.53363C19.426 9.48747 19.4886 9.46153 19.5539 9.46153H20.2924C20.3577 9.46153 20.4203 9.48747 20.4664 9.53363C20.5126 9.57979 20.5385 9.6424 20.5385 9.70769V10.4462C20.5385 10.5114 20.5645 10.574 20.6106 10.6202C20.6568 10.6664 20.7194 10.6923 20.7847 10.6923H20.9078C20.9731 10.6923 21.0357 10.7182 21.0818 10.7644C21.128 10.8106 21.1539 10.8732 21.1539 10.9385V11.0615C21.1539 11.1268 21.128 11.1894 21.0818 11.2356C21.0357 11.2818 20.9731 11.3077 20.9078 11.3077H20.7847C20.7194 11.3077 20.6568 11.3336 20.6106 11.3798C20.5645 11.426 20.5385 11.4886 20.5385 11.5538V11.6769C20.5385 11.7422 20.5126 11.8048 20.4664 11.851C20.4203 11.8971 20.3577 11.9231 20.2924 11.9231H20.1693C20.104 11.9231 20.0414 11.8971 19.9953 11.851C19.9491 11.8048 19.9232 11.7422 19.9232 11.6769V11.5538C19.9232 11.4886 19.8972 11.426 19.8511 11.3798C19.8049 11.3336 19.7423 11.3077 19.677 11.3077H18.9385C18.8733 11.3077 18.8106 11.3336 18.7645 11.3798C18.7183 11.426 18.6924 11.4886 18.6924 11.5538V11.6769C18.6924 11.7422 18.6665 11.8048 18.6203 11.851C18.5741 11.8971 18.5115 11.9231 18.4462 11.9231H17.7078C17.6425 11.9231 17.5799 11.8971 17.5337 11.851C17.4875 11.8048 17.4616 11.7422 17.4616 11.6769V11.5538C17.4616 11.4886 17.4875 11.426 17.5337 11.3798C17.5799 11.3336 17.6425 11.3077 17.7078 11.3077H17.8308C17.8961 11.3077 17.9587 11.2818 18.0049 11.2356C18.0511 11.1894 18.077 11.1268 18.077 11.0615V10.9385C18.077 10.8732 18.1029 10.8106 18.1491 10.7644C18.1953 10.7182 18.2579 10.6923 18.3232 10.6923H19.0616C19.1269 10.6923 19.1895 10.6664 19.2357 10.6202C19.2818 10.574 19.3078 10.5114 19.3078 10.4462V9.70769ZM5.76928 10.3231C5.76928 10.2578 5.79521 10.1952 5.84138 10.149C5.88754 10.1029 5.95015 10.0769 6.01543 10.0769H6.7539C6.81918 10.0769 6.88179 10.1029 6.92795 10.149C6.97412 10.1952 7.00005 10.2578 7.00005 10.3231V10.4462C7.00005 10.5114 6.97412 10.574 6.92795 10.6202C6.88179 10.6664 6.81918 10.6923 6.7539 10.6923H6.01543C5.95015 10.6923 5.88754 10.6664 5.84138 10.6202C5.79521 10.574 5.76928 10.5114 5.76928 10.4462V10.3231ZM10.077 10.3231C10.077 10.2578 10.1029 10.1952 10.1491 10.149C10.1952 10.1029 10.2579 10.0769 10.3231 10.0769H11.677C11.7423 10.0769 11.8049 10.1029 11.851 10.149C11.8972 10.1952 11.9231 10.2578 11.9231 10.3231V11.0615C11.9231 11.1268 11.8972 11.1894 11.851 11.2356C11.8049 11.2818 11.7423 11.3077 11.677 11.3077H11.5539C11.4886 11.3077 11.426 11.2818 11.3799 11.2356C11.3337 11.1894 11.3078 11.1268 11.3078 11.0615V10.9385C11.3078 10.8732 11.2818 10.8106 11.2357 10.7644C11.1895 10.7182 11.1269 10.6923 11.0616 10.6923H10.3231C10.2579 10.6923 10.1952 10.6664 10.1491 10.6202C10.1029 10.574 10.077 10.5114 10.077 10.4462V10.3231ZM0.846191 10.9385C0.846191 10.8732 0.872125 10.8106 0.918288 10.7644C0.964451 10.7182 1.02706 10.6923 1.09235 10.6923H1.21542C1.28071 10.6923 1.34332 10.7182 1.38948 10.7644C1.43564 10.8106 1.46158 10.8732 1.46158 10.9385V11.0615C1.46158 11.1268 1.43564 11.1894 1.38948 11.2356C1.34332 11.2818 1.28071 11.3077 1.21542 11.3077H1.09235C1.02706 11.3077 0.964451 11.2818 0.918288 11.2356C0.872125 11.1894 0.846191 11.1268 0.846191 11.0615V10.9385ZM2.07696 10.9385C2.07696 10.8732 2.1029 10.8106 2.14906 10.7644C2.19522 10.7182 2.25783 10.6923 2.32312 10.6923H3.67697C3.74225 10.6923 3.80486 10.7182 3.85102 10.7644C3.89719 10.8106 3.92312 10.8732 3.92312 10.9385V11.0615C3.92312 11.1268 3.89719 11.1894 3.85102 11.2356C3.80486 11.2818 3.74225 11.3077 3.67697 11.3077H2.32312C2.25783 11.3077 2.19522 11.2818 2.14906 11.2356C2.1029 11.1894 2.07696 11.1268 2.07696 11.0615V10.9385ZM4.53851 10.9385C4.53851 10.8732 4.56444 10.8106 4.6106 10.7644C4.65677 10.7182 4.71938 10.6923 4.78466 10.6923H5.52313C5.58841 10.6923 5.65102 10.7182 5.69718 10.7644C5.74335 10.8106 5.76928 10.8732 5.76928 10.9385V11.0615C5.76928 11.1268 5.79521 11.1894 5.84138 11.2356C5.88754 11.2818 5.95015 11.3077 6.01543 11.3077H6.7539C6.81918 11.3077 6.88179 11.3336 6.92795 11.3798C6.97412 11.426 7.00005 11.4886 7.00005 11.5538V11.6769C7.00005 11.7422 6.97412 11.8048 6.92795 11.851C6.88179 11.8971 6.81918 11.9231 6.7539 11.9231H6.63082C6.56554 11.9231 6.50293 11.949 6.45676 11.9952C6.4106 12.0413 6.38467 12.1039 6.38467 12.1692V12.2923C6.38467 12.3576 6.35873 12.4202 6.31257 12.4664C6.26641 12.5125 6.2038 12.5385 6.13851 12.5385H6.01543C5.95015 12.5385 5.88754 12.5125 5.84138 12.4664C5.79521 12.4202 5.76928 12.3576 5.76928 12.2923V12.1692C5.76928 12.1039 5.74335 12.0413 5.69718 11.9952C5.65102 11.949 5.58841 11.9231 5.52313 11.9231H5.40005C5.33476 11.9231 5.27215 11.8971 5.22599 11.851C5.17983 11.8048 5.15389 11.7422 5.15389 11.6769V11.5538C5.15389 11.4886 5.12796 11.426 5.0818 11.3798C5.03563 11.3336 4.97302 11.3077 4.90774 11.3077H4.78466C4.71938 11.3077 4.65677 11.2818 4.6106 11.2356C4.56444 11.1894 4.53851 11.1268 4.53851 11.0615V10.9385ZM7.00005 10.9385C7.00005 10.8732 7.02599 10.8106 7.07215 10.7644C7.11831 10.7182 7.18092 10.6923 7.24621 10.6923H7.36928C7.43457 10.6923 7.49718 10.7182 7.54334 10.7644C7.5895 10.8106 7.61544 10.8732 7.61544 10.9385V11.0615C7.61544 11.1268 7.5895 11.1894 7.54334 11.2356C7.49718 11.2818 7.43457 11.3077 7.36928 11.3077H7.24621C7.18092 11.3077 7.11831 11.2818 7.07215 11.2356C7.02599 11.1894 7.00005 11.1268 7.00005 11.0615V10.9385ZM9.4616 10.9385C9.4616 10.8732 9.48753 10.8106 9.53369 10.7644C9.57986 10.7182 9.64247 10.6923 9.70775 10.6923H9.83083C9.89611 10.6923 9.95872 10.7182 10.0049 10.7644C10.051 10.8106 10.077 10.8732 10.077 10.9385V11.0615C10.077 11.1268 10.1029 11.1894 10.1491 11.2356C10.1952 11.2818 10.2579 11.3077 10.3231 11.3077H10.4462C10.5115 11.3077 10.5741 11.3336 10.6203 11.3798C10.6664 11.426 10.6924 11.4886 10.6924 11.5538V11.6769C10.6924 11.7422 10.6664 11.8048 10.6203 11.851C10.5741 11.8971 10.5115 11.9231 10.4462 11.9231H9.09236C9.02708 11.9231 8.96447 11.8971 8.91831 11.851C8.87214 11.8048 8.84621 11.7422 8.84621 11.6769V11.5538C8.84621 11.4886 8.87214 11.426 8.91831 11.3798C8.96447 11.3336 9.02708 11.3077 9.09236 11.3077H9.21544C9.28073 11.3077 9.34334 11.2818 9.3895 11.2356C9.43566 11.1894 9.4616 11.1268 9.4616 11.0615V10.9385ZM15.0001 10.9385C15.0001 10.8732 15.026 10.8106 15.0722 10.7644C15.1183 10.7182 15.1809 10.6923 15.2462 10.6923H15.3693C15.4346 10.6923 15.4972 10.7182 15.5434 10.7644C15.5895 10.8106 15.6155 10.8732 15.6155 10.9385V11.6769C15.6155 11.7422 15.5895 11.8048 15.5434 11.851C15.4972 11.8971 15.4346 11.9231 15.3693 11.9231H15.2462C15.1809 11.9231 15.1183 11.949 15.0722 11.9952C15.026 12.0413 15.0001 12.1039 15.0001 12.1692V12.2923C15.0001 12.3576 14.9741 12.4202 14.928 12.4664C14.8818 12.5125 14.8192 12.5385 14.7539 12.5385H14.6308C14.5656 12.5385 14.5029 12.5644 14.4568 12.6106C14.4106 12.6567 14.3847 12.7193 14.3847 12.7846V12.9077C14.3847 12.973 14.3587 13.0356 14.3126 13.0818C14.2664 13.1279 14.2038 13.1539 14.1385 13.1539H14.0155C13.9502 13.1539 13.8876 13.1279 13.8414 13.0818C13.7952 13.0356 13.7693 12.973 13.7693 12.9077V12.1692C13.7693 12.1039 13.7952 12.0413 13.8414 11.9952C13.8876 11.949 13.9502 11.9231 14.0155 11.9231H14.1385C14.2038 11.9231 14.2664 11.8971 14.3126 11.851C14.3587 11.8048 14.3847 11.7422 14.3847 11.6769V11.5538C14.3847 11.4886 14.4106 11.426 14.4568 11.3798C14.5029 11.3336 14.5656 11.3077 14.6308 11.3077H14.7539C14.8192 11.3077 14.8818 11.2818 14.928 11.2356C14.9741 11.1894 15.0001 11.1268 15.0001 11.0615V10.9385ZM1.46158 11.5538C1.46158 11.4886 1.48751 11.426 1.53367 11.3798C1.57984 11.3336 1.64245 11.3077 1.70773 11.3077H1.83081C1.89609 11.3077 1.9587 11.3336 2.00487 11.3798C2.05103 11.426 2.07696 11.4886 2.07696 11.5538V11.6769C2.07696 11.7422 2.05103 11.8048 2.00487 11.851C1.9587 11.8971 1.89609 11.9231 1.83081 11.9231H1.70773C1.64245 11.9231 1.57984 11.8971 1.53367 11.851C1.48751 11.8048 1.46158 11.7422 1.46158 11.6769V11.5538ZM3.92312 11.5538C3.92312 11.4886 3.94906 11.426 3.99522 11.3798C4.04138 11.3336 4.10399 11.3077 4.16928 11.3077H4.29235C4.35764 11.3077 4.42025 11.3336 4.46641 11.3798C4.51257 11.426 4.53851 11.4886 4.53851 11.5538V11.6769C4.53851 11.7422 4.56444 11.8048 4.6106 11.851C4.65677 11.8971 4.71938 11.9231 4.78466 11.9231H4.90774C4.97302 11.9231 5.03563 11.949 5.0818 11.9952C5.12796 12.0413 5.15389 12.1039 5.15389 12.1692V12.2923C5.15389 12.3576 5.12796 12.4202 5.0818 12.4664C5.03563 12.5125 4.97302 12.5385 4.90774 12.5385H4.16928C4.10399 12.5385 4.04138 12.5125 3.99522 12.4664C3.94906 12.4202 3.92312 12.3576 3.92312 12.2923V11.5538ZM7.61544 11.5538C7.61544 11.4886 7.64137 11.426 7.68753 11.3798C7.7337 11.3336 7.79631 11.3077 7.86159 11.3077H7.98467C8.04995 11.3077 8.11256 11.3336 8.15873 11.3798C8.20489 11.426 8.23082 11.4886 8.23082 11.5538V11.6769C8.23082 11.7422 8.20489 11.8048 8.15873 11.851C8.11256 11.8971 8.04995 11.9231 7.98467 11.9231H7.86159C7.79631 11.9231 7.7337 11.8971 7.68753 11.851C7.64137 11.8048 7.61544 11.7422 7.61544 11.6769V11.5538ZM2.07696 12.1692C2.07696 12.1039 2.1029 12.0413 2.14906 11.9952C2.19522 11.949 2.25783 11.9231 2.32312 11.9231H2.4462C2.51148 11.9231 2.57409 11.949 2.62025 11.9952C2.66642 12.0413 2.69235 12.1039 2.69235 12.1692V13.5231C2.69235 13.5884 2.66642 13.651 2.62025 13.6971C2.57409 13.7433 2.51148 13.7692 2.4462 13.7692H1.70773C1.64245 13.7692 1.57984 13.7433 1.53367 13.6971C1.48751 13.651 1.46158 13.5884 1.46158 13.5231V13.4C1.46158 13.3347 1.48751 13.2721 1.53367 13.2259C1.57984 13.1798 1.64245 13.1539 1.70773 13.1539H1.83081C1.89609 13.1539 1.9587 13.1279 2.00487 13.0818C2.05103 13.0356 2.07696 12.973 2.07696 12.9077V12.1692ZM8.23082 12.1692C8.23082 12.1039 8.25676 12.0413 8.30292 11.9952C8.34908 11.949 8.41169 11.9231 8.47698 11.9231H8.60006C8.66534 11.9231 8.72795 11.949 8.77411 11.9952C8.82028 12.0413 8.84621 12.1039 8.84621 12.1692V12.2923C8.84621 12.3576 8.82028 12.4202 8.77411 12.4664C8.72795 12.5125 8.66534 12.5385 8.60006 12.5385H8.47698C8.41169 12.5385 8.34908 12.5125 8.30292 12.4664C8.25676 12.4202 8.23082 12.3576 8.23082 12.2923V12.1692ZM15.6155 12.1692C15.6155 12.1039 15.6414 12.0413 15.6876 11.9952C15.7337 11.949 15.7963 11.9231 15.8616 11.9231H17.2155C17.2807 11.9231 17.3434 11.949 17.3895 11.9952C17.4357 12.0413 17.4616 12.1039 17.4616 12.1692V12.2923C17.4616 12.3576 17.4357 12.4202 17.3895 12.4664C17.3434 12.5125 17.2807 12.5385 17.2155 12.5385H17.0924C17.0271 12.5385 16.9645 12.5644 16.9183 12.6106C16.8722 12.6567 16.8462 12.7193 16.8462 12.7846V12.9077C16.8462 12.973 16.8203 13.0356 16.7741 13.0818C16.728 13.1279 16.6654 13.1539 16.6001 13.1539H16.477C16.4117 13.1539 16.3491 13.1279 16.3029 13.0818C16.2568 13.0356 16.2308 12.973 16.2308 12.9077V12.7846C16.2308 12.7193 16.2049 12.6567 16.1587 12.6106C16.1126 12.5644 16.05 12.5385 15.9847 12.5385H15.8616C15.7963 12.5385 15.7337 12.5125 15.6876 12.4664C15.6414 12.4202 15.6155 12.3576 15.6155 12.2923V12.1692ZM19.3078 12.1692C19.3078 12.1039 19.3337 12.0413 19.3799 11.9952C19.426 11.949 19.4886 11.9231 19.5539 11.9231H19.677C19.7423 11.9231 19.8049 11.949 19.8511 11.9952C19.8972 12.0413 19.9232 12.1039 19.9232 12.1692V12.9077C19.9232 12.973 19.9491 13.0356 19.9953 13.0818C20.0414 13.1279 20.104 13.1539 20.1693 13.1539H20.2924C20.3577 13.1539 20.4203 13.1279 20.4664 13.0818C20.5126 13.0356 20.5385 12.973 20.5385 12.9077V12.7846C20.5385 12.7193 20.5645 12.6567 20.6106 12.6106C20.6568 12.5644 20.7194 12.5385 20.7847 12.5385H20.9078C20.9731 12.5385 21.0357 12.5644 21.0818 12.6106C21.128 12.6567 21.1539 12.7193 21.1539 12.7846V14.1385C21.1539 14.2038 21.128 14.2664 21.0818 14.3125C21.0357 14.3587 20.9731 14.3846 20.9078 14.3846H20.7847C20.7194 14.3846 20.6568 14.3587 20.6106 14.3125C20.5645 14.2664 20.5385 14.2038 20.5385 14.1385V14.0154C20.5385 13.9501 20.5126 13.8875 20.4664 13.8413C20.4203 13.7952 20.3577 13.7692 20.2924 13.7692H19.5539C19.4886 13.7692 19.426 13.7433 19.3799 13.6971C19.3337 13.651 19.3078 13.5884 19.3078 13.5231V13.4C19.3078 13.3347 19.2818 13.2721 19.2357 13.2259C19.1895 13.1798 19.1269 13.1539 19.0616 13.1539H18.9385C18.8733 13.1539 18.8106 13.1798 18.7645 13.2259C18.7183 13.2721 18.6924 13.3347 18.6924 13.4V14.1385C18.6924 14.2038 18.7183 14.2664 18.7645 14.3125C18.8106 14.3587 18.8733 14.3846 18.9385 14.3846H20.2924C20.3577 14.3846 20.4203 14.4106 20.4664 14.4567C20.5126 14.5029 20.5385 14.5655 20.5385 14.6308V14.7539C20.5385 14.8191 20.5126 14.8817 20.4664 14.9279C20.4203 14.9741 20.3577 15 20.2924 15H20.1693C20.104 15 20.0414 15.0259 19.9953 15.0721C19.9491 15.1183 19.9232 15.1809 19.9232 15.2462V15.3692C19.9232 15.4345 19.8972 15.4971 19.8511 15.5433C19.8049 15.5895 19.7423 15.6154 19.677 15.6154H19.5539C19.4886 15.6154 19.426 15.5895 19.3799 15.5433C19.3337 15.4971 19.3078 15.4345 19.3078 15.3692V15.2462C19.3078 15.1809 19.2818 15.1183 19.2357 15.0721C19.1895 15.0259 19.1269 15 19.0616 15H18.3232C18.2579 15 18.1953 14.9741 18.1491 14.9279C18.1029 14.8817 18.077 14.8191 18.077 14.7539V14.0154C18.077 13.9501 18.0511 13.8875 18.0049 13.8413C17.9587 13.7952 17.8961 13.7692 17.8308 13.7692H17.7078C17.6425 13.7692 17.5799 13.7433 17.5337 13.6971C17.4875 13.651 17.4616 13.5884 17.4616 13.5231V13.4C17.4616 13.3347 17.4875 13.2721 17.5337 13.2259C17.5799 13.1798 17.6425 13.1539 17.7078 13.1539H17.8308C17.8961 13.1539 17.9587 13.1279 18.0049 13.0818C18.0511 13.0356 18.077 12.973 18.077 12.9077V12.7846C18.077 12.7193 18.1029 12.6567 18.1491 12.6106C18.1953 12.5644 18.2579 12.5385 18.3232 12.5385H19.0616C19.1269 12.5385 19.1895 12.5125 19.2357 12.4664C19.2818 12.4202 19.3078 12.3576 19.3078 12.2923V12.1692ZM3.30774 12.7846C3.30774 12.7193 3.33367 12.6567 3.37983 12.6106C3.426 12.5644 3.48861 12.5385 3.55389 12.5385H3.67697C3.74225 12.5385 3.80486 12.5644 3.85102 12.6106C3.89719 12.6567 3.92312 12.7193 3.92312 12.7846V12.9077C3.92312 12.973 3.94906 13.0356 3.99522 13.0818C4.04138 13.1279 4.10399 13.1539 4.16928 13.1539H4.90774C4.97302 13.1539 5.03563 13.1798 5.0818 13.2259C5.12796 13.2721 5.15389 13.3347 5.15389 13.4V13.5231C5.15389 13.5884 5.12796 13.651 5.0818 13.6971C5.03563 13.7433 4.97302 13.7692 4.90774 13.7692H3.55389C3.48861 13.7692 3.426 13.7433 3.37983 13.6971C3.33367 13.651 3.30774 13.5884 3.30774 13.5231V12.7846ZM5.15389 12.7846C5.15389 12.7193 5.17983 12.6567 5.22599 12.6106C5.27215 12.5644 5.33476 12.5385 5.40005 12.5385H5.52313C5.58841 12.5385 5.65102 12.5644 5.69718 12.6106C5.74335 12.6567 5.76928 12.7193 5.76928 12.7846V12.9077C5.76928 12.973 5.74335 13.0356 5.69718 13.0818C5.65102 13.1279 5.58841 13.1539 5.52313 13.1539H5.40005C5.33476 13.1539 5.27215 13.1279 5.22599 13.0818C5.17983 13.0356 5.15389 12.973 5.15389 12.9077V12.7846ZM7.00005 12.7846C7.00005 12.7193 7.02599 12.6567 7.07215 12.6106C7.11831 12.5644 7.18092 12.5385 7.24621 12.5385H7.36928C7.43457 12.5385 7.49718 12.5644 7.54334 12.6106C7.5895 12.6567 7.61544 12.7193 7.61544 12.7846V12.9077C7.61544 12.973 7.5895 13.0356 7.54334 13.0818C7.49718 13.1279 7.43457 13.1539 7.36928 13.1539H7.24621C7.18092 13.1539 7.11831 13.1279 7.07215 13.0818C7.02599 13.0356 7.00005 12.973 7.00005 12.9077V12.7846ZM8.84621 12.7846C8.84621 12.7193 8.87214 12.6567 8.91831 12.6106C8.96447 12.5644 9.02708 12.5385 9.09236 12.5385H9.21544C9.28073 12.5385 9.34334 12.5644 9.3895 12.6106C9.43566 12.6567 9.4616 12.7193 9.4616 12.7846V13.5231C9.4616 13.5884 9.43566 13.651 9.3895 13.6971C9.34334 13.7433 9.28073 13.7692 9.21544 13.7692H9.09236C9.02708 13.7692 8.96447 13.7433 8.91831 13.6971C8.87214 13.651 8.84621 13.5884 8.84621 13.5231V12.7846ZM5.76928 13.4C5.76928 13.3347 5.79521 13.2721 5.84138 13.2259C5.88754 13.1798 5.95015 13.1539 6.01543 13.1539H6.7539C6.81918 13.1539 6.88179 13.1798 6.92795 13.2259C6.97412 13.2721 7.00005 13.3347 7.00005 13.4V13.5231C7.00005 13.5884 7.02599 13.651 7.07215 13.6971C7.11831 13.7433 7.18092 13.7692 7.24621 13.7692H7.36928C7.43457 13.7692 7.49718 13.7952 7.54334 13.8413C7.5895 13.8875 7.61544 13.9501 7.61544 14.0154V14.7539C7.61544 14.8191 7.5895 14.8817 7.54334 14.9279C7.49718 14.9741 7.43457 15 7.36928 15H7.24621C7.18092 15 7.11831 15.0259 7.07215 15.0721C7.02599 15.1183 7.00005 15.1809 7.00005 15.2462V15.3692C7.00005 15.4345 7.02599 15.4971 7.07215 15.5433C7.11831 15.5895 7.18092 15.6154 7.24621 15.6154H8.60006C8.66534 15.6154 8.72795 15.6413 8.77411 15.6875C8.82028 15.7337 8.84621 15.7963 8.84621 15.8615V15.9846C8.84621 16.0499 8.82028 16.1125 8.77411 16.1587C8.72795 16.2048 8.66534 16.2308 8.60006 16.2308H8.47698C8.41169 16.2308 8.34908 16.2567 8.30292 16.3029C8.25676 16.349 8.23082 16.4117 8.23082 16.4769V16.6C8.23082 16.6653 8.25676 16.7279 8.30292 16.7741C8.34908 16.8202 8.41169 16.8462 8.47698 16.8462H8.60006C8.66534 16.8462 8.72795 16.8721 8.77411 16.9183C8.82028 16.9644 8.84621 17.027 8.84621 17.0923V17.2154C8.84621 17.2807 8.82028 17.3433 8.77411 17.3895C8.72795 17.4356 8.66534 17.4616 8.60006 17.4616H8.47698C8.41169 17.4616 8.34908 17.4875 8.30292 17.5336C8.25676 17.5798 8.23082 17.6424 8.23082 17.7077V19.0616C8.23082 19.1268 8.20489 19.1895 8.15873 19.2356C8.11256 19.2818 8.04995 19.3077 7.98467 19.3077H7.86159C7.79631 19.3077 7.7337 19.2818 7.68753 19.2356C7.64137 19.1895 7.61544 19.1268 7.61544 19.0616V18.3231C7.61544 18.2578 7.5895 18.1952 7.54334 18.149C7.49718 18.1029 7.43457 18.0769 7.36928 18.0769H7.24621C7.18092 18.0769 7.11831 18.051 7.07215 18.0048C7.02599 17.9587 7.00005 17.8961 7.00005 17.8308V17.7077C7.00005 17.6424 6.97412 17.5798 6.92795 17.5336C6.88179 17.4875 6.81918 17.4616 6.7539 17.4616H6.63082C6.56554 17.4616 6.50293 17.4356 6.45676 17.3895C6.4106 17.3433 6.38467 17.2807 6.38467 17.2154V17.0923C6.38467 17.027 6.4106 16.9644 6.45676 16.9183C6.50293 16.8721 6.56554 16.8462 6.63082 16.8462H7.36928C7.43457 16.8462 7.49718 16.8202 7.54334 16.7741C7.5895 16.7279 7.61544 16.6653 7.61544 16.6V16.4769C7.61544 16.4117 7.5895 16.349 7.54334 16.3029C7.49718 16.2567 7.43457 16.2308 7.36928 16.2308H6.63082C6.56554 16.2308 6.50293 16.2567 6.45676 16.3029C6.4106 16.349 6.38467 16.4117 6.38467 16.4769V16.6C6.38467 16.6653 6.35873 16.7279 6.31257 16.7741C6.26641 16.8202 6.2038 16.8462 6.13851 16.8462H6.01543C5.95015 16.8462 5.88754 16.8202 5.84138 16.7741C5.79521 16.7279 5.76928 16.6653 5.76928 16.6V15.8615C5.76928 15.7963 5.74335 15.7337 5.69718 15.6875C5.65102 15.6413 5.58841 15.6154 5.52313 15.6154H5.40005C5.33476 15.6154 5.27215 15.5895 5.22599 15.5433C5.17983 15.4971 5.15389 15.4345 5.15389 15.3692V15.2462C5.15389 15.1809 5.17983 15.1183 5.22599 15.0721C5.27215 15.0259 5.33476 15 5.40005 15H6.13851C6.2038 15 6.26641 14.9741 6.31257 14.9279C6.35873 14.8817 6.38467 14.8191 6.38467 14.7539V14.6308C6.38467 14.5655 6.35873 14.5029 6.31257 14.4567C6.26641 14.4106 6.2038 14.3846 6.13851 14.3846H5.40005C5.33476 14.3846 5.27215 14.3587 5.22599 14.3125C5.17983 14.2664 5.15389 14.2038 5.15389 14.1385V14.0154C5.15389 13.9501 5.17983 13.8875 5.22599 13.8413C5.27215 13.7952 5.33476 13.7692 5.40005 13.7692H5.52313C5.58841 13.7692 5.65102 13.7433 5.69718 13.6971C5.74335 13.651 5.76928 13.5884 5.76928 13.5231V13.4ZM7.61544 13.4C7.61544 13.3347 7.64137 13.2721 7.68753 13.2259C7.7337 13.1798 7.79631 13.1539 7.86159 13.1539H7.98467C8.04995 13.1539 8.11256 13.1798 8.15873 13.2259C8.20489 13.2721 8.23082 13.3347 8.23082 13.4V13.5231C8.23082 13.5884 8.20489 13.651 8.15873 13.6971C8.11256 13.7433 8.04995 13.7692 7.98467 13.7692H7.86159C7.79631 13.7692 7.7337 13.7433 7.68753 13.6971C7.64137 13.651 7.61544 13.5884 7.61544 13.5231V13.4ZM10.077 13.4C10.077 13.3347 10.1029 13.2721 10.1491 13.2259C10.1952 13.1798 10.2579 13.1539 10.3231 13.1539H10.4462C10.5115 13.1539 10.5741 13.1798 10.6203 13.2259C10.6664 13.2721 10.6924 13.3347 10.6924 13.4V13.5231C10.6924 13.5884 10.6664 13.651 10.6203 13.6971C10.5741 13.7433 10.5115 13.7692 10.4462 13.7692H10.3231C10.2579 13.7692 10.1952 13.7433 10.1491 13.6971C10.1029 13.651 10.077 13.5884 10.077 13.5231V13.4ZM14.3847 13.4C14.3847 13.3347 14.4106 13.2721 14.4568 13.2259C14.5029 13.1798 14.5656 13.1539 14.6308 13.1539H15.3693C15.4346 13.1539 15.4972 13.1798 15.5434 13.2259C15.5895 13.2721 15.6155 13.3347 15.6155 13.4V13.5231C15.6155 13.5884 15.5895 13.651 15.5434 13.6971C15.4972 13.7433 15.4346 13.7692 15.3693 13.7692H15.2462C15.1809 13.7692 15.1183 13.7952 15.0722 13.8413C15.026 13.8875 15.0001 13.9501 15.0001 14.0154V14.1385C15.0001 14.2038 14.9741 14.2664 14.928 14.3125C14.8818 14.3587 14.8192 14.3846 14.7539 14.3846H14.0155C13.9502 14.3846 13.8876 14.3587 13.8414 14.3125C13.7952 14.2664 13.7693 14.2038 13.7693 14.1385V14.0154C13.7693 13.9501 13.7952 13.8875 13.8414 13.8413C13.8876 13.7952 13.9502 13.7692 14.0155 13.7692H14.1385C14.2038 13.7692 14.2664 13.7433 14.3126 13.6971C14.3587 13.651 14.3847 13.5884 14.3847 13.5231V13.4ZM2.69235 14.0154C2.69235 13.9501 2.71828 13.8875 2.76445 13.8413C2.81061 13.7952 2.87322 13.7692 2.9385 13.7692H3.06158C3.12687 13.7692 3.18948 13.7952 3.23564 13.8413C3.2818 13.8875 3.30774 13.9501 3.30774 14.0154V14.1385C3.30774 14.2038 3.33367 14.2664 3.37983 14.3125C3.426 14.3587 3.48861 14.3846 3.55389 14.3846H4.90774C4.97302 14.3846 5.03563 14.4106 5.0818 14.4567C5.12796 14.5029 5.15389 14.5655 5.15389 14.6308V14.7539C5.15389 14.8191 5.12796 14.8817 5.0818 14.9279C5.03563 14.9741 4.97302 15 4.90774 15H4.78466C4.71938 15 4.65677 15.0259 4.6106 15.0721C4.56444 15.1183 4.53851 15.1809 4.53851 15.2462V15.3692C4.53851 15.4345 4.51257 15.4971 4.46641 15.5433C4.42025 15.5895 4.35764 15.6154 4.29235 15.6154H4.16928C4.10399 15.6154 4.04138 15.5895 3.99522 15.5433C3.94906 15.4971 3.92312 15.4345 3.92312 15.3692V15.2462C3.92312 15.1809 3.89719 15.1183 3.85102 15.0721C3.80486 15.0259 3.74225 15 3.67697 15H3.55389C3.48861 15 3.426 15.0259 3.37983 15.0721C3.33367 15.1183 3.30774 15.1809 3.30774 15.2462V15.3692C3.30774 15.4345 3.2818 15.4971 3.23564 15.5433C3.18948 15.5895 3.12687 15.6154 3.06158 15.6154H2.32312C2.25783 15.6154 2.19522 15.5895 2.14906 15.5433C2.1029 15.4971 2.07696 15.4345 2.07696 15.3692V15.2462C2.07696 15.1809 2.1029 15.1183 2.14906 15.0721C2.19522 15.0259 2.25783 15 2.32312 15H2.4462C2.51148 15 2.57409 14.9741 2.62025 14.9279C2.66642 14.8817 2.69235 14.8191 2.69235 14.7539V14.0154ZM8.23082 14.0154C8.23082 13.9501 8.25676 13.8875 8.30292 13.8413C8.34908 13.7952 8.41169 13.7692 8.47698 13.7692H8.60006C8.66534 13.7692 8.72795 13.7952 8.77411 13.8413C8.82028 13.8875 8.84621 13.9501 8.84621 14.0154V14.1385C8.84621 14.2038 8.87214 14.2664 8.91831 14.3125C8.96447 14.3587 9.02708 14.3846 9.09236 14.3846H9.21544C9.28073 14.3846 9.34334 14.3587 9.3895 14.3125C9.43566 14.2664 9.4616 14.2038 9.4616 14.1385V14.0154C9.4616 13.9501 9.48753 13.8875 9.53369 13.8413C9.57986 13.7952 9.64247 13.7692 9.70775 13.7692H9.83083C9.89611 13.7692 9.95872 13.7952 10.0049 13.8413C10.051 13.8875 10.077 13.9501 10.077 14.0154V14.7539C10.077 14.8191 10.051 14.8817 10.0049 14.9279C9.95872 14.9741 9.89611 15 9.83083 15H9.70775C9.64247 15 9.57986 15.0259 9.53369 15.0721C9.48753 15.1183 9.4616 15.1809 9.4616 15.2462V15.3692C9.4616 15.4345 9.43566 15.4971 9.3895 15.5433C9.34334 15.5895 9.28073 15.6154 9.21544 15.6154H9.09236C9.02708 15.6154 8.96447 15.5895 8.91831 15.5433C8.87214 15.4971 8.84621 15.4345 8.84621 15.3692V15.2462C8.84621 15.1809 8.82028 15.1183 8.77411 15.0721C8.72795 15.0259 8.66534 15 8.60006 15H8.47698C8.41169 15 8.34908 14.9741 8.30292 14.9279C8.25676 14.8817 8.23082 14.8191 8.23082 14.7539V14.0154ZM10.6924 14.0154C10.6924 13.9501 10.7183 13.8875 10.7645 13.8413C10.8106 13.7952 10.8732 13.7692 10.9385 13.7692H11.0616C11.1269 13.7692 11.1895 13.7952 11.2357 13.8413C11.2818 13.8875 11.3078 13.9501 11.3078 14.0154V14.1385C11.3078 14.2038 11.3337 14.2664 11.3799 14.3125C11.426 14.3587 11.4886 14.3846 11.5539 14.3846H12.2924C12.3577 14.3846 12.4203 14.4106 12.4664 14.4567C12.5126 14.5029 12.5385 14.5655 12.5385 14.6308V15.3692C12.5385 15.4345 12.5126 15.4971 12.4664 15.5433C12.4203 15.5895 12.3577 15.6154 12.2924 15.6154H12.1693C12.104 15.6154 12.0414 15.6413 11.9952 15.6875C11.9491 15.7337 11.9231 15.7963 11.9231 15.8615V15.9846C11.9231 16.0499 11.8972 16.1125 11.851 16.1587C11.8049 16.2048 11.7423 16.2308 11.677 16.2308H10.9385C10.8732 16.2308 10.8106 16.2567 10.7645 16.3029C10.7183 16.349 10.6924 16.4117 10.6924 16.4769V17.2154C10.6924 17.2807 10.6664 17.3433 10.6203 17.3895C10.5741 17.4356 10.5115 17.4616 10.4462 17.4616H9.70775C9.64247 17.4616 9.57986 17.4356 9.53369 17.3895C9.48753 17.3433 9.4616 17.2807 9.4616 17.2154V15.8615C9.4616 15.7963 9.48753 15.7337 9.53369 15.6875C9.57986 15.6413 9.64247 15.6154 9.70775 15.6154H11.0616C11.1269 15.6154 11.1895 15.5895 11.2357 15.5433C11.2818 15.4971 11.3078 15.4345 11.3078 15.3692V15.2462C11.3078 15.1809 11.2818 15.1183 11.2357 15.0721C11.1895 15.0259 11.1269 15 11.0616 15H10.9385C10.8732 15 10.8106 14.9741 10.7645 14.9279C10.7183 14.8817 10.6924 14.8191 10.6924 14.7539V14.0154ZM15.6155 14.0154C15.6155 13.9501 15.6414 13.8875 15.6876 13.8413C15.7337 13.7952 15.7963 13.7692 15.8616 13.7692H16.6001C16.6654 13.7692 16.728 13.7952 16.7741 13.8413C16.8203 13.8875 16.8462 13.9501 16.8462 14.0154V14.1385C16.8462 14.2038 16.8722 14.2664 16.9183 14.3125C16.9645 14.3587 17.0271 14.3846 17.0924 14.3846H17.2155C17.2807 14.3846 17.3434 14.4106 17.3895 14.4567C17.4357 14.5029 17.4616 14.5655 17.4616 14.6308V14.7539C17.4616 14.8191 17.4357 14.8817 17.3895 14.9279C17.3434 14.9741 17.2807 15 17.2155 15H15.8616C15.7963 15 15.7337 14.9741 15.6876 14.9279C15.6414 14.8817 15.6155 14.8191 15.6155 14.7539V14.0154ZM0.846191 14.6308C0.846191 14.5655 0.872125 14.5029 0.918288 14.4567C0.964451 14.4106 1.02706 14.3846 1.09235 14.3846H1.83081C1.89609 14.3846 1.9587 14.4106 2.00487 14.4567C2.05103 14.5029 2.07696 14.5655 2.07696 14.6308V14.7539C2.07696 14.8191 2.05103 14.8817 2.00487 14.9279C1.9587 14.9741 1.89609 15 1.83081 15H1.09235C1.02706 15 0.964451 14.9741 0.918288 14.9279C0.872125 14.8817 0.846191 14.8191 0.846191 14.7539V14.6308ZM13.7693 15.2462C13.7693 15.1809 13.7952 15.1183 13.8414 15.0721C13.8876 15.0259 13.9502 15 14.0155 15H14.7539C14.8192 15 14.8818 15.0259 14.928 15.0721C14.9741 15.1183 15.0001 15.1809 15.0001 15.2462V15.3692C15.0001 15.4345 14.9741 15.4971 14.928 15.5433C14.8818 15.5895 14.8192 15.6154 14.7539 15.6154H14.6308C14.5656 15.6154 14.5029 15.6413 14.4568 15.6875C14.4106 15.7337 14.3847 15.7963 14.3847 15.8615V15.9846C14.3847 16.0499 14.3587 16.1125 14.3126 16.1587C14.2664 16.2048 14.2038 16.2308 14.1385 16.2308H14.0155C13.9502 16.2308 13.8876 16.2048 13.8414 16.1587C13.7952 16.1125 13.7693 16.0499 13.7693 15.9846V15.2462ZM0.846191 15.8615C0.846191 15.7963 0.872125 15.7337 0.918288 15.6875C0.964451 15.6413 1.02706 15.6154 1.09235 15.6154H1.83081C1.89609 15.6154 1.9587 15.6413 2.00487 15.6875C2.05103 15.7337 2.07696 15.7963 2.07696 15.8615V15.9846C2.07696 16.0499 2.05103 16.1125 2.00487 16.1587C1.9587 16.2048 1.89609 16.2308 1.83081 16.2308H1.09235C1.02706 16.2308 0.964451 16.2048 0.918288 16.1587C0.872125 16.1125 0.846191 16.0499 0.846191 15.9846V15.8615ZM3.30774 15.8615C3.30774 15.7963 3.33367 15.7337 3.37983 15.6875C3.426 15.6413 3.48861 15.6154 3.55389 15.6154H3.67697C3.74225 15.6154 3.80486 15.6413 3.85102 15.6875C3.89719 15.7337 3.92312 15.7963 3.92312 15.8615V15.9846C3.92312 16.0499 3.89719 16.1125 3.85102 16.1587C3.80486 16.2048 3.74225 16.2308 3.67697 16.2308H3.55389C3.48861 16.2308 3.426 16.2048 3.37983 16.1587C3.33367 16.1125 3.30774 16.0499 3.30774 15.9846V15.8615ZM4.53851 15.8615C4.53851 15.7963 4.56444 15.7337 4.6106 15.6875C4.65677 15.6413 4.71938 15.6154 4.78466 15.6154H4.90774C4.97302 15.6154 5.03563 15.6413 5.0818 15.6875C5.12796 15.7337 5.15389 15.7963 5.15389 15.8615V15.9846C5.15389 16.0499 5.12796 16.1125 5.0818 16.1587C5.03563 16.2048 4.97302 16.2308 4.90774 16.2308H4.78466C4.71938 16.2308 4.65677 16.2048 4.6106 16.1587C4.56444 16.1125 4.53851 16.0499 4.53851 15.9846V15.8615ZM12.5385 15.8615C12.5385 15.7963 12.5645 15.7337 12.6106 15.6875C12.6568 15.6413 12.7194 15.6154 12.7847 15.6154H12.9078C12.973 15.6154 13.0357 15.6413 13.0818 15.6875C13.128 15.7337 13.1539 15.7963 13.1539 15.8615V15.9846C13.1539 16.0499 13.128 16.1125 13.0818 16.1587C13.0357 16.2048 12.973 16.2308 12.9078 16.2308H12.7847C12.7194 16.2308 12.6568 16.2048 12.6106 16.1587C12.5645 16.1125 12.5385 16.0499 12.5385 15.9846V15.8615ZM15.0001 15.8615C15.0001 15.7963 15.026 15.7337 15.0722 15.6875C15.1183 15.6413 15.1809 15.6154 15.2462 15.6154H15.3693C15.4346 15.6154 15.4972 15.6413 15.5434 15.6875C15.5895 15.7337 15.6155 15.7963 15.6155 15.8615V16.6C15.6155 16.6653 15.5895 16.7279 15.5434 16.7741C15.4972 16.8202 15.4346 16.8462 15.3693 16.8462H15.2462C15.1809 16.8462 15.1183 16.8721 15.0722 16.9183C15.026 16.9644 15.0001 17.027 15.0001 17.0923V18.4462C15.0001 18.5115 14.9741 18.5741 14.928 18.6202C14.8818 18.6664 14.8192 18.6923 14.7539 18.6923H14.0155C13.9502 18.6923 13.8876 18.6664 13.8414 18.6202C13.7952 18.5741 13.7693 18.5115 13.7693 18.4462V18.3231C13.7693 18.2578 13.7434 18.1952 13.6972 18.149C13.651 18.1029 13.5884 18.0769 13.5231 18.0769H12.7847C12.7194 18.0769 12.6568 18.051 12.6106 18.0048C12.5645 17.9587 12.5385 17.8961 12.5385 17.8308V17.7077C12.5385 17.6424 12.5645 17.5798 12.6106 17.5336C12.6568 17.4875 12.7194 17.4616 12.7847 17.4616H13.5231C13.5884 17.4616 13.651 17.4356 13.6972 17.3895C13.7434 17.3433 13.7693 17.2807 13.7693 17.2154V17.0923C13.7693 17.027 13.7952 16.9644 13.8414 16.9183C13.8876 16.8721 13.9502 16.8462 14.0155 16.8462H14.1385C14.2038 16.8462 14.2664 16.8202 14.3126 16.7741C14.3587 16.7279 14.3847 16.6653 14.3847 16.6V16.4769C14.3847 16.4117 14.4106 16.349 14.4568 16.3029C14.5029 16.2567 14.5656 16.2308 14.6308 16.2308H14.7539C14.8192 16.2308 14.8818 16.2048 14.928 16.1587C14.9741 16.1125 15.0001 16.0499 15.0001 15.9846V15.8615ZM19.9232 15.8615C19.9232 15.7963 19.9491 15.7337 19.9953 15.6875C20.0414 15.6413 20.104 15.6154 20.1693 15.6154H20.9078C20.9731 15.6154 21.0357 15.6413 21.0818 15.6875C21.128 15.7337 21.1539 15.7963 21.1539 15.8615V15.9846C21.1539 16.0499 21.128 16.1125 21.0818 16.1587C21.0357 16.2048 20.9731 16.2308 20.9078 16.2308H20.7847C20.7194 16.2308 20.6568 16.2567 20.6106 16.3029C20.5645 16.349 20.5385 16.4117 20.5385 16.4769V16.6C20.5385 16.6653 20.5126 16.7279 20.4664 16.7741C20.4203 16.8202 20.3577 16.8462 20.2924 16.8462H20.1693C20.104 16.8462 20.0414 16.8202 19.9953 16.7741C19.9491 16.7279 19.9232 16.6653 19.9232 16.6V15.8615ZM11.9231 16.4769C11.9231 16.4117 11.9491 16.349 11.9952 16.3029C12.0414 16.2567 12.104 16.2308 12.1693 16.2308H12.2924C12.3577 16.2308 12.4203 16.2567 12.4664 16.3029C12.5126 16.349 12.5385 16.4117 12.5385 16.4769V17.2154C12.5385 17.2807 12.5126 17.3433 12.4664 17.3895C12.4203 17.4356 12.3577 17.4616 12.2924 17.4616H12.1693C12.104 17.4616 12.0414 17.4875 11.9952 17.5336C11.9491 17.5798 11.9231 17.6424 11.9231 17.7077V17.8308C11.9231 17.8961 11.8972 17.9587 11.851 18.0048C11.8049 18.051 11.7423 18.0769 11.677 18.0769H11.5539C11.4886 18.0769 11.426 18.1029 11.3799 18.149C11.3337 18.1952 11.3078 18.2578 11.3078 18.3231V18.4462C11.3078 18.5115 11.2818 18.5741 11.2357 18.6202C11.1895 18.6664 11.1269 18.6923 11.0616 18.6923H9.70775C9.64247 18.6923 9.57986 18.6664 9.53369 18.6202C9.48753 18.5741 9.4616 18.5115 9.4616 18.4462V18.3231C9.4616 18.2578 9.48753 18.1952 9.53369 18.149C9.57986 18.1029 9.64247 18.0769 9.70775 18.0769H10.4462C10.5115 18.0769 10.5741 18.051 10.6203 18.0048C10.6664 17.9587 10.6924 17.8961 10.6924 17.8308V17.7077C10.6924 17.6424 10.7183 17.5798 10.7645 17.5336C10.8106 17.4875 10.8732 17.4616 10.9385 17.4616H11.0616C11.1269 17.4616 11.1895 17.4356 11.2357 17.3895C11.2818 17.3433 11.3078 17.2807 11.3078 17.2154V17.0923C11.3078 17.027 11.3337 16.9644 11.3799 16.9183C11.426 16.8721 11.4886 16.8462 11.5539 16.8462H11.677C11.7423 16.8462 11.8049 16.8202 11.851 16.7741C11.8972 16.7279 11.9231 16.6653 11.9231 16.6V16.4769ZM13.1539 16.4769C13.1539 16.4117 13.1798 16.349 13.226 16.3029C13.2722 16.2567 13.3348 16.2308 13.4001 16.2308H13.5231C13.5884 16.2308 13.651 16.2567 13.6972 16.3029C13.7434 16.349 13.7693 16.4117 13.7693 16.4769V16.6C13.7693 16.6653 13.7434 16.7279 13.6972 16.7741C13.651 16.8202 13.5884 16.8462 13.5231 16.8462H13.4001C13.3348 16.8462 13.2722 16.8202 13.226 16.7741C13.1798 16.7279 13.1539 16.6653 13.1539 16.6V16.4769ZM18.6924 17.0923C18.6924 17.027 18.7183 16.9644 18.7645 16.9183C18.8106 16.8721 18.8733 16.8462 18.9385 16.8462H19.677C19.7423 16.8462 19.8049 16.8721 19.8511 16.9183C19.8972 16.9644 19.9232 17.027 19.9232 17.0923V18.4462C19.9232 18.5115 19.8972 18.5741 19.8511 18.6202C19.8049 18.6664 19.7423 18.6923 19.677 18.6923H19.5539C19.4886 18.6923 19.426 18.6664 19.3799 18.6202C19.3337 18.5741 19.3078 18.5115 19.3078 18.4462V18.3231C19.3078 18.2578 19.2818 18.1952 19.2357 18.149C19.1895 18.1029 19.1269 18.0769 19.0616 18.0769H18.9385C18.8733 18.0769 18.8106 18.051 18.7645 18.0048C18.7183 17.9587 18.6924 17.8961 18.6924 17.8308V17.0923ZM5.76928 17.7077C5.76928 17.6424 5.79521 17.5798 5.84138 17.5336C5.88754 17.4875 5.95015 17.4616 6.01543 17.4616H6.13851C6.2038 17.4616 6.26641 17.4875 6.31257 17.5336C6.35873 17.5798 6.38467 17.6424 6.38467 17.7077V17.8308C6.38467 17.8961 6.35873 17.9587 6.31257 18.0048C6.26641 18.051 6.2038 18.0769 6.13851 18.0769H6.01543C5.95015 18.0769 5.88754 18.051 5.84138 18.0048C5.79521 17.9587 5.76928 17.8961 5.76928 17.8308V17.7077ZM20.5385 17.7077C20.5385 17.6424 20.5645 17.5798 20.6106 17.5336C20.6568 17.4875 20.7194 17.4616 20.7847 17.4616H20.9078C20.9731 17.4616 21.0357 17.4875 21.0818 17.5336C21.128 17.5798 21.1539 17.6424 21.1539 17.7077V17.8308C21.1539 17.8961 21.128 17.9587 21.0818 18.0048C21.0357 18.051 20.9731 18.0769 20.9078 18.0769H20.7847C20.7194 18.0769 20.6568 18.051 20.6106 18.0048C20.5645 17.9587 20.5385 17.8961 20.5385 17.8308V17.7077ZM6.38467 18.3231C6.38467 18.2578 6.4106 18.1952 6.45676 18.149C6.50293 18.1029 6.56554 18.0769 6.63082 18.0769H6.7539C6.81918 18.0769 6.88179 18.1029 6.92795 18.149C6.97412 18.1952 7.00005 18.2578 7.00005 18.3231V19.6769C7.00005 19.7422 6.97412 19.8048 6.92795 19.851C6.88179 19.8972 6.81918 19.9231 6.7539 19.9231H6.63082C6.56554 19.9231 6.50293 19.949 6.45676 19.9952C6.4106 20.0414 6.38467 20.104 6.38467 20.1693V20.2923C6.38467 20.3576 6.4106 20.4202 6.45676 20.4664C6.50293 20.5125 6.56554 20.5385 6.63082 20.5385H6.7539C6.81918 20.5385 6.88179 20.5644 6.92795 20.6106C6.97412 20.6567 7.00005 20.7194 7.00005 20.7846V20.9077C7.00005 20.973 6.97412 21.0356 6.92795 21.0818C6.88179 21.1279 6.81918 21.1539 6.7539 21.1539H6.01543C5.95015 21.1539 5.88754 21.1279 5.84138 21.0818C5.79521 21.0356 5.76928 20.973 5.76928 20.9077V19.5539C5.76928 19.4886 5.79521 19.426 5.84138 19.3798C5.88754 19.3336 5.95015 19.3077 6.01543 19.3077H6.13851C6.2038 19.3077 6.26641 19.2818 6.31257 19.2356C6.35873 19.1895 6.38467 19.1268 6.38467 19.0616V18.3231ZM11.9231 18.3231C11.9231 18.2578 11.9491 18.1952 11.9952 18.149C12.0414 18.1029 12.104 18.0769 12.1693 18.0769H12.2924C12.3577 18.0769 12.4203 18.1029 12.4664 18.149C12.5126 18.1952 12.5385 18.2578 12.5385 18.3231V18.4462C12.5385 18.5115 12.5645 18.5741 12.6106 18.6202C12.6568 18.6664 12.7194 18.6923 12.7847 18.6923H12.9078C12.973 18.6923 13.0357 18.7183 13.0818 18.7644C13.128 18.8106 13.1539 18.8732 13.1539 18.9385V19.0616C13.1539 19.1268 13.128 19.1895 13.0818 19.2356C13.0357 19.2818 12.973 19.3077 12.9078 19.3077H12.1693C12.104 19.3077 12.0414 19.2818 11.9952 19.2356C11.9491 19.1895 11.9231 19.1268 11.9231 19.0616V18.3231ZM16.8462 18.9385C16.8462 18.8732 16.8722 18.8106 16.9183 18.7644C16.9645 18.7183 17.0271 18.6923 17.0924 18.6923H17.8308C17.8961 18.6923 17.9587 18.7183 18.0049 18.7644C18.0511 18.8106 18.077 18.8732 18.077 18.9385V19.0616C18.077 19.1268 18.0511 19.1895 18.0049 19.2356C17.9587 19.2818 17.8961 19.3077 17.8308 19.3077H17.0924C17.0271 19.3077 16.9645 19.2818 16.9183 19.2356C16.8722 19.1895 16.8462 19.1268 16.8462 19.0616V18.9385ZM8.23082 19.5539C8.23082 19.4886 8.25676 19.426 8.30292 19.3798C8.34908 19.3336 8.41169 19.3077 8.47698 19.3077H9.83083C9.89611 19.3077 9.95872 19.3336 10.0049 19.3798C10.051 19.426 10.077 19.4886 10.077 19.5539V19.6769C10.077 19.7422 10.051 19.8048 10.0049 19.851C9.95872 19.8972 9.89611 19.9231 9.83083 19.9231H9.70775C9.64247 19.9231 9.57986 19.949 9.53369 19.9952C9.48753 20.0414 9.4616 20.104 9.4616 20.1693V20.9077C9.4616 20.973 9.43566 21.0356 9.3895 21.0818C9.34334 21.1279 9.28073 21.1539 9.21544 21.1539H9.09236C9.02708 21.1539 8.96447 21.1279 8.91831 21.0818C8.87214 21.0356 8.84621 20.973 8.84621 20.9077V20.1693C8.84621 20.104 8.82028 20.0414 8.77411 19.9952C8.72795 19.949 8.66534 19.9231 8.60006 19.9231H8.47698C8.41169 19.9231 8.34908 19.8972 8.30292 19.851C8.25676 19.8048 8.23082 19.7422 8.23082 19.6769V19.5539ZM11.3078 19.5539C11.3078 19.4886 11.3337 19.426 11.3799 19.3798C11.426 19.3336 11.4886 19.3077 11.5539 19.3077H11.677C11.7423 19.3077 11.8049 19.3336 11.851 19.3798C11.8972 19.426 11.9231 19.4886 11.9231 19.5539V19.6769C11.9231 19.7422 11.9491 19.8048 11.9952 19.851C12.0414 19.8972 12.104 19.9231 12.1693 19.9231H12.2924C12.3577 19.9231 12.4203 19.949 12.4664 19.9952C12.5126 20.0414 12.5385 20.104 12.5385 20.1693V20.2923C12.5385 20.3576 12.5126 20.4202 12.4664 20.4664C12.4203 20.5125 12.3577 20.5385 12.2924 20.5385H12.1693C12.104 20.5385 12.0414 20.5644 11.9952 20.6106C11.9491 20.6567 11.9231 20.7194 11.9231 20.7846V20.9077C11.9231 20.973 11.8972 21.0356 11.851 21.0818C11.8049 21.1279 11.7423 21.1539 11.677 21.1539H11.5539C11.4886 21.1539 11.426 21.1279 11.3799 21.0818C11.3337 21.0356 11.3078 20.973 11.3078 20.9077V19.5539ZM13.1539 19.5539C13.1539 19.4886 13.1798 19.426 13.226 19.3798C13.2722 19.3336 13.3348 19.3077 13.4001 19.3077H13.5231C13.5884 19.3077 13.651 19.3336 13.6972 19.3798C13.7434 19.426 13.7693 19.4886 13.7693 19.5539V19.6769C13.7693 19.7422 13.7434 19.8048 13.6972 19.851C13.651 19.8972 13.5884 19.9231 13.5231 19.9231H13.4001C13.3348 19.9231 13.2722 19.8972 13.226 19.851C13.1798 19.8048 13.1539 19.7422 13.1539 19.6769V19.5539ZM14.3847 19.5539C14.3847 19.4886 14.4106 19.426 14.4568 19.3798C14.5029 19.3336 14.5656 19.3077 14.6308 19.3077H15.9847C16.05 19.3077 16.1126 19.3336 16.1587 19.3798C16.2049 19.426 16.2308 19.4886 16.2308 19.5539V19.6769C16.2308 19.7422 16.2049 19.8048 16.1587 19.851C16.1126 19.8972 16.05 19.9231 15.9847 19.9231H15.8616C15.7963 19.9231 15.7337 19.949 15.6876 19.9952C15.6414 20.0414 15.6155 20.104 15.6155 20.1693V20.2923C15.6155 20.3576 15.5895 20.4202 15.5434 20.4664C15.4972 20.5125 15.4346 20.5385 15.3693 20.5385H14.6308C14.5656 20.5385 14.5029 20.5644 14.4568 20.6106C14.4106 20.6567 14.3847 20.7194 14.3847 20.7846V20.9077C14.3847 20.973 14.3587 21.0356 14.3126 21.0818C14.2664 21.1279 14.2038 21.1539 14.1385 21.1539H14.0155C13.9502 21.1539 13.8876 21.1279 13.8414 21.0818C13.7952 21.0356 13.7693 20.973 13.7693 20.9077V20.1693C13.7693 20.104 13.7952 20.0414 13.8414 19.9952C13.8876 19.949 13.9502 19.9231 14.0155 19.9231H14.1385C14.2038 19.9231 14.2664 19.8972 14.3126 19.851C14.3587 19.8048 14.3847 19.7422 14.3847 19.6769V19.5539ZM18.6924 19.5539C18.6924 19.4886 18.7183 19.426 18.7645 19.3798C18.8106 19.3336 18.8733 19.3077 18.9385 19.3077H19.677C19.7423 19.3077 19.8049 19.3336 19.8511 19.3798C19.8972 19.426 19.9232 19.4886 19.9232 19.5539V20.2923C19.9232 20.3576 19.8972 20.4202 19.8511 20.4664C19.8049 20.5125 19.7423 20.5385 19.677 20.5385H19.5539C19.4886 20.5385 19.426 20.5125 19.3799 20.4664C19.3337 20.4202 19.3078 20.3576 19.3078 20.2923V20.1693C19.3078 20.104 19.2818 20.0414 19.2357 19.9952C19.1895 19.949 19.1269 19.9231 19.0616 19.9231H18.9385C18.8733 19.9231 18.8106 19.8972 18.7645 19.851C18.7183 19.8048 18.6924 19.7422 18.6924 19.6769V19.5539ZM20.5385 19.5539C20.5385 19.4886 20.5645 19.426 20.6106 19.3798C20.6568 19.3336 20.7194 19.3077 20.7847 19.3077H20.9078C20.9731 19.3077 21.0357 19.3336 21.0818 19.3798C21.128 19.426 21.1539 19.4886 21.1539 19.5539V19.6769C21.1539 19.7422 21.128 19.8048 21.0818 19.851C21.0357 19.8972 20.9731 19.9231 20.9078 19.9231H20.7847C20.7194 19.9231 20.6568 19.8972 20.6106 19.851C20.5645 19.8048 20.5385 19.7422 20.5385 19.6769V19.5539ZM16.8462 20.1693C16.8462 20.104 16.8722 20.0414 16.9183 19.9952C16.9645 19.949 17.0271 19.9231 17.0924 19.9231H17.2155C17.2807 19.9231 17.3434 19.949 17.3895 19.9952C17.4357 20.0414 17.4616 20.104 17.4616 20.1693V20.2923C17.4616 20.3576 17.4357 20.4202 17.3895 20.4664C17.3434 20.5125 17.2807 20.5385 17.2155 20.5385H17.0924C17.0271 20.5385 16.9645 20.5125 16.9183 20.4664C16.8722 20.4202 16.8462 20.3576 16.8462 20.2923V20.1693ZM7.61544 20.7846C7.61544 20.7194 7.64137 20.6567 7.68753 20.6106C7.7337 20.5644 7.79631 20.5385 7.86159 20.5385H7.98467C8.04995 20.5385 8.11256 20.5644 8.15873 20.6106C8.20489 20.6567 8.23082 20.7194 8.23082 20.7846V20.9077C8.23082 20.973 8.20489 21.0356 8.15873 21.0818C8.11256 21.1279 8.04995 21.1539 7.98467 21.1539H7.86159C7.79631 21.1539 7.7337 21.1279 7.68753 21.0818C7.64137 21.0356 7.61544 20.973 7.61544 20.9077V20.7846ZM10.077 20.7846C10.077 20.7194 10.1029 20.6567 10.1491 20.6106C10.1952 20.5644 10.2579 20.5385 10.3231 20.5385H10.4462C10.5115 20.5385 10.5741 20.5644 10.6203 20.6106C10.6664 20.6567 10.6924 20.7194 10.6924 20.7846V20.9077C10.6924 20.973 10.6664 21.0356 10.6203 21.0818C10.5741 21.1279 10.5115 21.1539 10.4462 21.1539H10.3231C10.2579 21.1539 10.1952 21.1279 10.1491 21.0818C10.1029 21.0356 10.077 20.973 10.077 20.9077V20.7846ZM12.5385 20.7846C12.5385 20.7194 12.5645 20.6567 12.6106 20.6106C12.6568 20.5644 12.7194 20.5385 12.7847 20.5385H12.9078C12.973 20.5385 13.0357 20.5644 13.0818 20.6106C13.128 20.6567 13.1539 20.7194 13.1539 20.7846V20.9077C13.1539 20.973 13.128 21.0356 13.0818 21.0818C13.0357 21.1279 12.973 21.1539 12.9078 21.1539H12.7847C12.7194 21.1539 12.6568 21.1279 12.6106 21.0818C12.5645 21.0356 12.5385 20.973 12.5385 20.9077V20.7846ZM20.5385 20.7846C20.5385 20.7194 20.5645 20.6567 20.6106 20.6106C20.6568 20.5644 20.7194 20.5385 20.7847 20.5385H20.9078C20.9731 20.5385 21.0357 20.5644 21.0818 20.6106C21.128 20.6567 21.1539 20.7194 21.1539 20.7846V20.9077C21.1539 20.973 21.128 21.0356 21.0818 21.0818C21.0357 21.1279 20.9731 21.1539 20.9078 21.1539H20.7847C20.7194 21.1539 20.6568 21.1279 20.6106 21.0818C20.5645 21.0356 20.5385 20.973 20.5385 20.9077V20.7846Z" />
        <path fill-rule="evenodd" clip-rule="evenodd" d="M1.49235 0.84613H4.50774C4.67911 0.84613 4.84346 0.914207 4.96464 1.03538C5.08582 1.15656 5.15389 1.32091 5.15389 1.49229V4.50768C5.15389 4.67905 5.08582 4.8434 4.96464 4.96458C4.84346 5.08576 4.67911 5.15383 4.50774 5.15383H1.49235C1.32098 5.15383 1.15662 5.08576 1.03545 4.96458C0.914268 4.8434 0.846191 4.67905 0.846191 4.50768V1.49229C0.846191 1.32091 0.914268 1.15656 1.03545 1.03538C1.15662 0.914207 1.32098 0.84613 1.49235 0.84613V0.84613ZM1.92312 1.46152H4.07697C4.19938 1.46152 4.31677 1.51014 4.40333 1.5967C4.48988 1.68325 4.53851 1.80065 4.53851 1.92306V4.07691C4.53851 4.19931 4.48988 4.31671 4.40333 4.40326C4.31677 4.48982 4.19938 4.53845 4.07697 4.53845H1.92312C1.80071 4.53845 1.68331 4.48982 1.59676 4.40326C1.5102 4.31671 1.46158 4.19931 1.46158 4.07691V1.92306C1.46158 1.80065 1.5102 1.68325 1.59676 1.5967C1.68331 1.51014 1.80071 1.46152 1.92312 1.46152V1.46152ZM2.35389 2.0769H3.6462C3.68256 2.0769 3.71857 2.08407 3.75217 2.09798C3.78577 2.1119 3.8163 2.1323 3.84201 2.15801C3.86773 2.18373 3.88813 2.21425 3.90204 2.24785C3.91596 2.28145 3.92312 2.31746 3.92312 2.35383V3.64614C3.92312 3.6825 3.91596 3.71851 3.90204 3.75211C3.88813 3.78571 3.86773 3.81624 3.84201 3.84195C3.8163 3.86767 3.78577 3.88806 3.75217 3.90198C3.71857 3.9159 3.68256 3.92306 3.6462 3.92306H2.35389C2.31752 3.92306 2.28151 3.9159 2.24791 3.90198C2.21432 3.88806 2.18379 3.86767 2.15807 3.84195C2.13236 3.81624 2.11196 3.78571 2.09804 3.75211C2.08413 3.71851 2.07696 3.6825 2.07696 3.64614V2.35383C2.07696 2.31746 2.08413 2.28145 2.09804 2.24785C2.11196 2.21425 2.13236 2.18373 2.15807 2.15801C2.18379 2.1323 2.21432 2.1119 2.24791 2.09798C2.28151 2.08407 2.31752 2.0769 2.35389 2.0769V2.0769ZM17.4924 0.84613H20.5078C20.6791 0.84613 20.8435 0.914207 20.9647 1.03538C21.0859 1.15656 21.1539 1.32091 21.1539 1.49229V4.50768C21.1539 4.67905 21.0859 4.8434 20.9647 4.96458C20.8435 5.08576 20.6791 5.15383 20.5078 5.15383H17.4924C17.321 5.15383 17.1567 5.08576 17.0355 4.96458C16.9143 4.8434 16.8462 4.67905 16.8462 4.50768V1.49229C16.8462 1.32091 16.9143 1.15656 17.0355 1.03538C17.1567 0.914207 17.321 0.84613 17.4924 0.84613V0.84613ZM17.9232 1.46152H20.077C20.1994 1.46152 20.3168 1.51014 20.4034 1.5967C20.4899 1.68325 20.5385 1.80065 20.5385 1.92306V4.07691C20.5385 4.19931 20.4899 4.31671 20.4034 4.40326C20.3168 4.48982 20.1994 4.53845 20.077 4.53845H17.9232C17.8007 4.53845 17.6834 4.48982 17.5968 4.40326C17.5102 4.31671 17.4616 4.19931 17.4616 4.07691V1.92306C17.4616 1.80065 17.5102 1.68325 17.5968 1.5967C17.6834 1.51014 17.8007 1.46152 17.9232 1.46152V1.46152ZM18.3539 2.0769H19.6462C19.7197 2.0769 19.7901 2.10608 19.842 2.15801C19.894 2.20994 19.9232 2.28038 19.9232 2.35383V3.64614C19.9232 3.71958 19.894 3.79002 19.842 3.84195C19.7901 3.89388 19.7197 3.92306 19.6462 3.92306H18.3539C18.2805 3.92306 18.21 3.89388 18.1581 3.84195C18.1062 3.79002 18.077 3.71958 18.077 3.64614V2.35383C18.077 2.28038 18.1062 2.20994 18.1581 2.15801C18.21 2.10608 18.2805 2.0769 18.3539 2.0769V2.0769ZM1.49235 16.8462H4.50774C4.59259 16.8462 4.67662 16.8629 4.75501 16.8954C4.83341 16.9278 4.90464 16.9754 4.96464 17.0354C5.02464 17.0954 5.07224 17.1667 5.10471 17.245C5.13718 17.3234 5.15389 17.4075 5.15389 17.4923V20.5077C5.15389 20.6791 5.08582 20.8434 4.96464 20.9646C4.84346 21.0858 4.67911 21.1539 4.50774 21.1539H1.49235C1.32098 21.1539 1.15662 21.0858 1.03545 20.9646C0.914268 20.8434 0.846191 20.6791 0.846191 20.5077V17.4923C0.846191 17.321 0.914268 17.1566 1.03545 17.0354C1.15662 16.9142 1.32098 16.8462 1.49235 16.8462V16.8462ZM1.92312 17.4616H4.07697C4.19938 17.4616 4.31677 17.5102 4.40333 17.5967C4.48988 17.6833 4.53851 17.8007 4.53851 17.9231V20.0769C4.53851 20.1994 4.48988 20.3167 4.40333 20.4033C4.31677 20.4899 4.19938 20.5385 4.07697 20.5385H1.92312C1.80071 20.5385 1.68331 20.4899 1.59676 20.4033C1.5102 20.3167 1.46158 20.1994 1.46158 20.0769V17.9231C1.46158 17.8007 1.5102 17.6833 1.59676 17.5967C1.68331 17.5102 1.80071 17.4616 1.92312 17.4616V17.4616ZM2.35389 18.0769H3.6462C3.71964 18.0769 3.79008 18.1061 3.84201 18.158C3.89395 18.21 3.92312 18.2804 3.92312 18.3539V19.6462C3.92312 19.7196 3.89395 19.7901 3.84201 19.842C3.79008 19.8939 3.71964 19.9231 3.6462 19.9231H2.35389C2.28044 19.9231 2.21001 19.8939 2.15807 19.842C2.10614 19.7901 2.07696 19.7196 2.07696 19.6462V18.3539C2.07696 18.2804 2.10614 18.21 2.15807 18.158C2.21001 18.1061 2.28044 18.0769 2.35389 18.0769V18.0769ZM16.077 15.6154H18.2308C18.3533 15.6154 18.4706 15.664 18.5572 15.7506C18.6438 15.8371 18.6924 15.9545 18.6924 16.0769V18.2308C18.6924 18.3532 18.6438 18.4706 18.5572 18.5571C18.4706 18.6437 18.3533 18.6923 18.2308 18.6923H16.077C15.9546 18.6923 15.8372 18.6437 15.7506 18.5571C15.6641 18.4706 15.6155 18.3532 15.6155 18.2308V16.0769C15.6155 15.9545 15.6641 15.8371 15.7506 15.7506C15.8372 15.664 15.9546 15.6154 16.077 15.6154V15.6154ZM16.5078 16.2308H17.8001C17.8735 16.2308 17.944 16.26 17.9959 16.3119C18.0478 16.3638 18.077 16.4343 18.077 16.5077V17.8C18.077 17.8735 18.0478 17.9439 17.9959 17.9958C17.944 18.0478 17.8735 18.0769 17.8001 18.0769H16.5078C16.4343 18.0769 16.3639 18.0478 16.312 17.9958C16.26 17.9439 16.2308 17.8735 16.2308 17.8V16.5077C16.2308 16.4343 16.26 16.3638 16.312 16.3119C16.3639 16.26 16.4343 16.2308 16.5078 16.2308V16.2308ZM16.9385 16.8462H17.3693C17.3938 16.8462 17.4173 16.8559 17.4346 16.8732C17.4519 16.8905 17.4616 16.914 17.4616 16.9385V17.3692C17.4616 17.3937 17.4519 17.4172 17.4346 17.4345C17.4173 17.4518 17.3938 17.4616 17.3693 17.4616H16.9385C16.9141 17.4616 16.8906 17.4518 16.8733 17.4345C16.856 17.4172 16.8462 17.3937 16.8462 17.3692V16.9385C16.8462 16.914 16.856 16.8905 16.8733 16.8732C16.8906 16.8559 16.9141 16.8462 16.9385 16.8462V16.8462Z" />
    </symbol>

    <symbol fill="none" stroke="currentColor" viewBox="0 0 8 8" id="exit">
        <path d="M7 1L1 7M1 1L7 7" stroke-width="2" stroke-linecap="round" stroke-linejoin="round"/>
    </symbol>

    <symbol fill="none" stroke="currentColor" viewBox="0 0 20 18" id="upload">
        <path d="M13.3335 12.3334L10.0002 9.00003M10.0002 9.00003L6.66688 12.3334M10.0002 9.00003V16.5M16.9919 14.325C17.8047 13.8819 18.4467 13.1808 18.8168 12.3322C19.1868 11.4837 19.2637 10.5361 19.0354 9.63893C18.807 8.74182 18.2865 7.94629 17.5558 7.3779C16.8251 6.80951 15.9259 6.50064 15.0002 6.50003H13.9502C13.698 5.52439 13.2278 4.61864 12.5752 3.85085C11.9225 3.08307 11.1043 2.47324 10.182 2.0672C9.25967 1.66116 8.25734 1.46949 7.25031 1.5066C6.24328 1.5437 5.25777 1.80861 4.36786 2.28142C3.47795 2.75422 2.7068 3.42261 2.1124 4.23635C1.51799 5.05008 1.11579 5.98797 0.936028 6.97952C0.756269 7.97107 0.803632 8.99047 1.07456 9.96108C1.34548 10.9317 1.83291 11.8282 2.50021 12.5834" stroke-width="1.66667" stroke-linecap="round" stroke-linejoin="round"/>
    </symbol>

    <symbol viewBox="0 0 20 20" stroke="currentColor" fill="none" id="image">
        <path d="M3 19H17C18.1046 19 19 18.1046 19 17V3C19 1.89543 18.1046 1 17 1H3C1.89543 1 1 1.89543 1 3V17C1 18.1046 1.89543 19 3 19ZM3 19L14 8L19 13M8 6.5C8 7.32843 7.32843 8 6.5 8C5.67157 8 5 7.32843 5 6.5C5 5.67157 5.67157 5 6.5 5C7.32843 5 8 5.67157 8 6.5Z" stroke-width="1.67" stroke-linecap="round" stroke-linejoin="round"/>
    </symbol>

    <symbol fill="none" stroke="currentColor" viewBox="0 0 16 16" id="closedEye">
        <path d="M6.59984 2.82663C7.05872 2.71921 7.52855 2.66552 7.99984 2.66663C12.6665 2.66663 15.3332 7.99996 15.3332 7.99996C14.9285 8.75703 14.4459 9.46978 13.8932 10.1266M9.41317 9.41329C9.23007 9.60979 9.00927 9.7674 8.76394 9.87671C8.51861 9.98602 8.25377 10.0448 7.98523 10.0495C7.71669 10.0543 7.44995 10.0049 7.20091 9.90429C6.95188 9.8037 6.72565 9.65398 6.53573 9.46406C6.34582 9.27414 6.1961 9.04792 6.09551 8.79888C5.99492 8.54985 5.94552 8.28311 5.95026 8.01457C5.955 7.74602 6.01378 7.48119 6.12309 7.23586C6.2324 6.99053 6.39001 6.76972 6.5865 6.58663M0.666504 0.666626L15.3332 15.3333M11.9598 11.96C10.8202 12.8286 9.43258 13.3099 7.99984 13.3333C3.33317 13.3333 0.666504 7.99996 0.666504 7.99996C1.49576 6.45456 2.64593 5.10436 4.03984 4.03996L11.9598 11.96Z" stroke-width="1.33" stroke-linecap="round" stroke-linejoin="round"/>
    </symbol>

    <symbol fill="none" stroke="currentColor" viewBox="0 0 16 16" id="openedEye">
        <path d="M0.666504 7.99996C0.666504 7.99996 3.33317 2.66663 7.99984 2.66663C12.6665 2.66663 15.3332 7.99996 15.3332 7.99996C15.3332 7.99996 12.6665 13.3333 7.99984 13.3333C3.33317 13.3333 0.666504 7.99996 0.666504 7.99996Z" stroke-width="1.33" stroke-linecap="round" stroke-linejoin="round"/>
        <path d="M7.99984 9.99996C9.10441 9.99996 9.99984 9.10453 9.99984 7.99996C9.99984 6.89539 9.10441 5.99996 7.99984 5.99996C6.89527 5.99996 5.99984 6.89539 5.99984 7.99996C5.99984 9.10453 6.89527 9.99996 7.99984 9.99996Z" stroke-width="1.33" stroke-linecap="round" stroke-linejoin="round"/>
    </symbol>

    <symbol fill="none" stroke="currentColor" viewBox="0 0 22 22" id="plus">
        <path d="M11 7V15M7 11H15M21 11C21 16.5228 16.5228 21 11 21C5.47715 21 1 16.5228 1 11C1 5.47715 5.47715 1 11 1C16.5228 1 21 5.47715 21 11Z" stroke-width="2" stroke-linecap="round" stroke-linejoin="round"/>
    </symbol>

    <symbol fill="none" stroke="currentColor" viewBox="0 0 16 16" id="error">
        <path d="M8.00016 5.33325V7.99992M8.00016 10.6666H8.00683M14.6668 7.99992C14.6668 11.6818 11.6821 14.6666 8.00016 14.6666C4.31826 14.6666 1.3335 11.6818 1.3335 7.99992C1.3335 4.31802 4.31826 1.33325 8.00016 1.33325C11.6821 1.33325 14.6668 4.31802 14.6668 7.99992Z" stroke-width="1.33333" stroke-linecap="round" stroke-linejoin="round"/>
    </symbol>

    <symbol fill="none" stroke="currentColor" viewBox="0 0 16 16" id="success">
        <path d="M14.6668 7.38674V8.00007C14.666 9.43769 14.2005 10.8365 13.3397 11.988C12.4789 13.1394 11.269 13.9817 9.8904 14.3893C8.51178 14.797 7.03834 14.748 5.68981 14.2498C4.34128 13.7516 3.18993 12.8308 2.40747 11.6248C1.62501 10.4188 1.25336 8.99212 1.34795 7.55762C1.44254 6.12312 1.9983 4.75762 2.93235 3.66479C3.8664 2.57195 5.12869 1.81033 6.53096 1.4935C7.93323 1.17668 9.40034 1.32163 10.7135 1.90674M14.6668 2.66674L8.00017 9.34007L6.00017 7.34007" stroke-width="1.33" stroke-linecap="round" stroke-linejoin="round"/>
    </symbol>

    <symbol viewBox="0 0 11 11" id="spinner">
        <path fill-rule="evenodd" clip-rule="evenodd" d="M5.5 11C8.53757 11 11 8.53757 11 5.5C11 2.46243 8.53757 0 5.5 0C2.46243 0 0 2.46243 0 5.5C0 8.53757 2.46243 11 5.5 11ZM5.50003 9.89999C7.93008 9.89999 9.90003 7.93005 9.90003 5.49999C9.90003 3.06994 7.93008 1.09999 5.50003 1.09999C3.06998 1.09999 1.10003 3.06994 1.10003 5.49999C1.10003 7.93005 3.06998 9.89999 5.50003 9.89999Z" fill="#F4EBFF"/>
        <path fill-rule="evenodd" clip-rule="evenodd" d="M4.31489 9.7386L4.01904 10.7969C4.83635 11.0254 5.69545 11.0616 6.52909 10.9028C7.36274 10.744 8.14833 10.3944 8.82438 9.88144C9.50043 9.36846 10.0486 8.70599 10.426 7.94588C10.8034 7.18577 10.9998 6.34864 10.9998 5.5H9.89981C9.89981 7.93005 7.92986 9.89999 5.49981 9.89999C5.08928 9.89999 4.69188 9.84377 4.31489 9.7386Z" fill="#9E77ED"/>
    </symbol>


</svg>